<?xml version="1.0" standalone="no"?>
<!DOCTYPE svg PUBLIC "-//W3C//DTD SVG 20010904//EN"
 "http://www.w3.org/TR/2001/REC-SVG-20010904/DTD/svg10.dtd">
<svg version="1.0" xmlns="http://www.w3.org/2000/svg"
 width="768.000000pt" height="543.000000pt" viewBox="0 0 768.000000 543.000000"
 preserveAspectRatio="xMidYMid meet">
<metadata>
Created by potrace 1.16, written by Peter Selinger 2001-2019
</metadata>
<g transform="translate(0.000000,543.000000) scale(0.100000,-0.100000)"
fill="#000000" stroke="none">
<path d="M0 2715 l0 -2715 3840 0 3840 0 0 2715 0 2715 -3840 0 -3840 0 0
-2715z m3638 1850 c40 0 71 -4 69 -9 -2 -5 -38 -8 -80 -7 -64 2 -76 0 -71 -12
3 -8 15 -18 27 -21 12 -3 233 -6 492 -6 l469 0 43 -42 c39 -39 44 -41 56 -24
12 16 14 15 36 -8 23 -25 44 -34 39 -18 -6 16 31 52 58 58 53 10 107 -55 82
-100 -7 -13 -3 -16 22 -16 21 0 30 -4 27 -12 -2 -8 -17 -12 -39 -10 -20 2 -39
-1 -43 -7 -8 -14 -62 -14 -70 -1 -3 6 -37 10 -75 10 -38 0 -72 5 -75 11 -4 6
-1 10 6 8 8 -1 35 -1 60 0 33 1 46 5 46 16 0 8 -6 15 -13 15 -7 0 -18 9 -24
20 -12 23 -42 28 -34 5 11 -28 -8 -15 -53 35 l-45 50 -473 0 c-318 0 -476 -3
-480 -10 -4 -6 -1 -17 5 -25 17 -20 -24 -132 -51 -140 -10 -4 -19 -11 -19 -16
0 -6 -5 -7 -12 -3 -7 4 -8 3 -4 -4 4 -6 -6 -22 -21 -34 -58 -48 -204 -193
-245 -244 -40 -51 -58 -59 -58 -28 0 8 6 14 14 14 13 0 257 249 264 270 7 20
-18 9 -34 -15 -17 -26 -44 -34 -44 -14 0 7 8 18 18 25 12 9 13 13 4 14 -8 0
-60 -47 -116 -104 l-102 -105 -104 -2 c-79 -1 -105 1 -105 11 0 9 26 12 106
11 l107 -2 83 91 c46 50 83 95 82 101 -2 5 0 8 5 7 4 -2 9 2 12 7 3 6 -9 17
-27 25 -18 8 -38 25 -45 38 -9 17 -19 22 -35 19 -25 -5 -41 9 -26 24 5 5 22 5
42 -1 28 -8 31 -7 21 5 -7 8 -9 16 -4 16 28 4 -82 18 -141 18 -62 1 -74 -2
-98 -24 -34 -32 -35 -67 -2 -93 14 -11 25 -25 25 -31 0 -19 -16 -12 -38 19
-30 41 -28 80 6 113 27 26 32 27 145 27 110 0 117 1 117 20 0 19 -7 20 -205
20 -172 0 -205 -2 -205 -15 0 -7 7 -18 14 -22 8 -5 22 -24 31 -43 l16 -35 -5
33 c-5 26 -2 32 13 32 16 0 18 -6 13 -46 -4 -39 -1 -49 21 -72 28 -30 40 -82
20 -89 -9 -3 -13 5 -13 24 0 33 -28 76 -36 55 -3 -6 -9 -10 -12 -8 -4 2 -7
-22 -7 -54 -1 -62 -15 -90 -46 -90 -11 0 -19 -4 -19 -9 0 -5 -17 -12 -38 -16
-44 -7 -78 -25 -49 -25 9 0 17 -6 17 -13 0 -27 -13 -25 -47 8 -20 19 -41 31
-49 28 -8 -3 -24 3 -34 12 -11 10 -23 15 -27 11 -4 -4 8 -20 27 -36 25 -22 32
-32 23 -41 -8 -8 -24 3 -59 41 -27 29 -56 63 -65 77 -14 21 -17 22 -23 8 -3
-9 -6 -31 -6 -49 0 -25 -11 -42 -52 -83 -47 -45 -59 -51 -105 -55 -40 -4 -53
-2 -53 8 0 10 11 12 46 7 45 -6 46 -5 100 48 l55 54 -3 87 c-2 80 -4 88 -26
98 -27 12 -24 36 5 33 11 -1 20 4 20 11 0 32 48 109 82 130 76 48 99 51 199
28 77 -19 121 -22 290 -22 186 0 201 1 223 20 l24 20 -64 -2 c-43 -1 -66 2
-69 10 -3 9 7 11 35 7 21 -3 65 -2 98 4 33 5 89 6 125 3 36 -4 98 -7 138 -7z
m1387 -265 l153 0 57 -67 c31 -38 95 -107 141 -155 46 -49 84 -90 84 -93 0 -3
-7 -5 -15 -5 -8 0 -15 5 -15 11 0 20 -205 232 -208 215 -4 -19 -32 -22 -32 -3
-1 8 -5 7 -13 -3 -13 -18 -116 -21 -107 -4 3 5 20 7 38 6 32 -4 33 -3 22 18
-11 20 -18 22 -91 18 -50 -2 -79 1 -79 7 0 7 28 9 74 7 65 -4 77 -1 95 17 l21
21 -328 0 -328 0 -57 -58 c-31 -32 -57 -63 -57 -69 0 -7 -10 -17 -21 -24 -18
-9 -21 -18 -16 -55 3 -29 1 -44 -7 -44 -15 0 -17 150 -2 151 36 2 54 13 100
58 l51 50 135 4 c74 2 162 2 194 0 32 -1 127 -3 211 -3z m-2615 -54 c0 -11
-11 -13 -52 -10 -52 5 -53 5 -88 -37 -21 -27 -30 -44 -22 -47 17 -5 15 -91 -3
-122 -8 -14 -14 -28 -15 -32 0 -5 51 -8 112 -8 l112 0 68 67 c38 37 68 74 68
81 0 8 6 12 13 10 22 -8 13 -22 -64 -95 l-76 -73 -120 0 c-83 0 -131 -5 -156
-15 -19 -8 -37 -12 -39 -10 -3 3 -13 -4 -23 -15 -12 -13 -18 -36 -18 -65 0
-29 -5 -45 -13 -45 -11 0 -11 41 0 100 4 22 -32 23 -38 2 -3 -9 -5 -71 -4
-136 l1 -119 140 -144 c77 -78 146 -143 153 -143 8 0 14 -7 14 -15 0 -8 -7
-15 -15 -15 -8 0 -15 6 -15 13 0 7 -65 77 -145 157 -96 96 -145 152 -145 166
0 20 -3 21 -40 11 -32 -9 -42 -8 -57 5 -15 14 -29 15 -83 9 -65 -8 -84 -6 -75
8 2 5 26 6 53 3 43 -4 51 -1 66 19 9 13 16 34 16 47 0 17 8 26 30 33 27 10 30
15 30 55 0 32 4 44 15 44 8 0 15 -5 15 -11 0 -5 -4 -8 -8 -5 -5 3 -6 -14 -3
-37 4 -28 11 -42 21 -42 11 0 16 14 18 57 3 54 2 57 -33 84 -19 15 -33 29 -31
32 3 2 -1 20 -9 38 -27 64 10 155 76 190 47 24 111 18 155 -15 l39 -28 36 28
c20 16 51 29 75 32 21 2 45 4 52 5 6 1 12 -4 12 -12z m3328 -437 c2 8 -7 25
-22 37 -24 22 -34 44 -19 44 3 0 19 -14 33 -32 l27 -32 35 17 c112 53 221 16
268 -90 20 -46 27 -121 12 -138 -5 -6 -13 -22 -20 -38 -11 -25 -9 -31 23 -66
l35 -38 0 -294 -1 -294 -24 -30 c-20 -24 -27 -27 -37 -17 -10 10 -7 17 16 35
l28 23 0 283 0 283 -33 34 c-18 19 -38 34 -43 33 -6 0 -5 -3 2 -6 6 -2 9 -9 6
-15 -3 -5 3 -12 15 -15 23 -6 29 -33 7 -33 -8 0 -22 7 -30 16 -29 28 -17 1 13
-31 22 -23 30 -42 33 -83 4 -44 3 -52 -11 -50 -12 2 -15 14 -12 52 2 45 0 51
-35 81 -33 28 -41 31 -68 24 -53 -15 -91 -10 -127 17 -30 22 -42 25 -103 22
-49 -2 -71 1 -74 10 -2 8 11 12 48 12 37 0 50 4 47 13 -2 6 -11 11 -20 9 -22
-4 -31 16 -15 35 12 15 11 15 -17 0 -43 -22 -86 -70 -83 -93 2 -10 -1 -21 -7
-24 -5 -3 -11 6 -13 20 -2 19 9 36 43 70 25 24 45 50 45 57 0 7 7 13 15 13 11
0 15 12 15 46 0 26 8 59 17 75 l17 29 -167 168 c-92 92 -167 174 -167 182 0
13 -1 13 -10 0 -5 -8 -10 -10 -10 -4 0 6 2 13 5 16 3 2 84 -74 181 -171 118
-118 178 -171 182 -162z m-1243 -349 l-105 -104 0 -131 0 -130 -126 -125
c-128 -128 -155 -160 -133 -160 7 0 78 65 159 145 l146 145 105 0 106 0 102
105 c56 58 104 105 107 105 16 0 -9 -29 -98 -118 l-103 -102 -105 0 -105 0
-142 -142 c-79 -79 -143 -149 -143 -157 0 -12 3 -12 12 -3 9 9 23 -1 62 -44
l50 -56 103 4 c68 2 103 0 103 -7 0 -7 -37 -9 -107 -7 l-108 4 -40 39 c-23 21
-47 39 -55 39 -8 0 13 -27 47 -60 34 -32 58 -62 53 -65 -5 -3 -27 14 -49 37
l-40 43 -26 -27 c-31 -34 -62 -43 -98 -29 -38 15 -53 7 -129 -68 -75 -72 -83
-98 -43 -129 24 -19 33 -42 17 -42 -16 0 -52 60 -52 87 0 21 20 48 81 111 131
135 81 107 -61 -34 -108 -106 -128 -131 -116 -140 8 -6 20 -23 25 -37 l11 -27
162 0 c152 0 163 1 185 22 13 12 23 33 23 47 1 35 45 90 61 74 8 -8 5 -14 -12
-24 -30 -15 -39 -28 -39 -58 0 -14 -10 -35 -22 -48 -20 -21 -30 -23 -123 -23
-125 0 -255 -10 -255 -20 0 -4 9 -10 21 -13 12 -3 19 -12 17 -19 -6 -16 -100
-19 -110 -4 -4 6 -10 7 -14 3 -4 -4 0 -15 9 -25 13 -15 17 -39 17 -115 0 -58
-4 -97 -10 -97 -6 0 -10 37 -10 92 0 80 -3 95 -22 115 -12 13 -33 23 -48 23
-16 0 -37 12 -55 30 -27 28 -33 30 -105 30 -69 0 -79 3 -100 25 -23 25 -26 25
-181 25 l-157 0 -24 -27 c-38 -44 -62 -54 -98 -41 -31 10 -34 9 -96 -53 -81
-80 -86 -120 -16 -123 27 -1 44 -26 18 -26 -18 0 -22 -35 -5 -45 19 -12 -2
-155 -22 -155 -5 0 -7 -11 -3 -24 4 -17 1 -25 -12 -30 -15 -6 -16 -9 -5 -16 8
-5 11 -15 7 -26 -5 -13 -9 -15 -18 -6 -16 16 -28 15 -28 -2 0 -7 -12 -21 -26
-31 -20 -13 -24 -22 -20 -41 5 -19 3 -24 -13 -24 -15 0 -19 6 -18 26 1 15 -4
29 -10 31 -9 3 -13 -6 -13 -28 0 -40 62 -111 89 -102 12 4 13 3 2 -5 -10 -7
-5 -16 23 -38 35 -28 45 -44 27 -44 -19 0 -161 156 -161 176 0 22 -24 39 -40
29 -5 -3 -11 -1 -14 4 -3 5 -14 7 -24 5 -29 -8 -104 33 -187 104 -70 60 -80
72 -83 105 -3 34 -6 37 -30 35 -41 -5 -41 26 0 39 30 10 27 11 -38 12 l-71 1
-1 -31 c-1 -35 -46 -90 -94 -115 -64 -34 -150 -7 -183 56 -18 35 -20 91 -3
108 8 8 8 15 0 24 -16 20 -19 70 -4 75 8 3 12 -5 12 -24 0 -42 8 -46 47 -22
27 17 45 20 94 17 51 -4 63 -1 73 14 6 10 16 18 23 18 20 0 15 -24 -8 -38 -12
-7 -19 -16 -16 -18 9 -9 57 27 57 42 0 8 6 14 14 14 26 0 26 -17 1 -34 -35
-23 -49 -52 -27 -55 42 -7 135 -2 145 8 8 8 2 11 -21 11 -22 0 -32 5 -32 15 0
9 9 15 23 14 42 -1 62 6 69 24 4 9 16 17 26 17 11 0 31 11 46 25 15 14 36 25
47 25 28 0 24 11 -21 55 -37 36 -44 39 -91 37 -37 -1 -50 1 -46 10 2 9 21 12
58 10 49 -3 59 -8 101 -50 27 -25 48 -41 48 -35 0 6 -14 23 -31 38 -24 19 -29
29 -21 37 9 9 20 2 45 -26 32 -37 35 -39 108 -42 l76 -3 36 37 c19 20 37 48
39 62 2 14 8 23 13 20 18 -9 5 -42 -36 -92 -23 -27 -40 -51 -37 -53 2 -3 42
31 88 75 45 44 84 80 86 80 12 0 1 -28 -14 -36 -24 -12 -127 -123 -120 -129 3
-3 45 33 94 79 70 67 95 85 119 86 17 0 40 3 53 6 16 5 22 2 22 -11 0 -14 -7
-15 -47 -10 l-48 6 -90 -91 c-49 -49 -83 -90 -75 -90 9 0 47 32 85 70 38 39
77 70 85 70 9 0 22 6 28 12 10 10 17 10 33 0 17 -11 24 -9 50 13 30 24 34 25
188 25 155 0 158 0 181 -25 21 -23 31 -25 105 -25 73 0 84 -2 104 -24 29 -31
96 -40 98 -14 1 14 -6 18 -30 18 -26 0 -43 11 -87 56 -55 55 -55 56 -107 51
-42 -3 -53 0 -53 11 0 10 7 13 23 8 12 -3 37 -6 55 -6 25 0 44 -11 85 -50 40
-39 59 -50 85 -50 52 0 37 32 -17 34 -34 1 -29 21 5 21 20 1 51 26 125 102 54
56 101 98 104 93 2 -4 -40 -52 -95 -106 -97 -95 -117 -120 -85 -108 8 4 15 12
15 20 0 8 5 14 12 14 6 0 76 64 154 141 108 107 144 149 148 174 5 24 41 66
151 176 127 126 145 147 140 169 -3 15 1 33 9 45 9 11 16 38 16 60 0 38 -6 46
-129 169 -103 103 -133 128 -150 123 -20 -5 -39 8 -28 19 18 19 75 -21 190
-134 l127 -126 0 -51 c0 -47 12 -75 32 -75 4 0 8 50 8 112 l0 111 103 107 c56
58 106 103 110 100 4 -4 -40 -53 -98 -110z m-1640 -57 c7 -9 21 -18 31 -19 93
-13 94 -13 114 14 15 18 24 22 32 14 8 -8 3 -18 -18 -36 -16 -14 -35 -26 -41
-26 -18 0 -16 -30 1 -30 8 0 34 23 59 50 25 28 48 46 51 41 7 -11 -93 -110
-111 -111 -24 0 -27 -50 -4 -74 20 -21 21 -33 21 -176 l0 -154 -117 -118
c-107 -109 -133 -145 -86 -120 10 6 56 49 102 96 80 82 101 98 101 76 0 -5 -4
-10 -10 -10 -10 0 -173 -164 -178 -181 -8 -21 19 -7 40 21 12 17 25 30 30 30
19 0 5 -22 -42 -66 -58 -54 -62 -78 -20 -119 26 -25 34 -27 75 -22 34 5 46 4
43 -5 -3 -8 -22 -11 -54 -9 -59 3 -99 35 -109 87 -3 19 -9 34 -13 34 -3 0 -22
-16 -42 -35 l-35 -34 -155 -2 c-104 -1 -156 3 -158 10 -3 8 44 10 152 9 l156
-1 30 28 c16 16 28 31 25 33 -3 3 0 11 7 19 8 11 7 12 -6 7 -9 -3 -21 -15 -27
-25 -5 -11 -14 -19 -19 -19 -13 0 -13 27 0 32 5 2 75 68 155 146 l146 144 -6
151 c-6 129 -10 155 -26 172 -15 15 -21 17 -31 7 -19 -19 -62 -14 -93 9 -23
19 -26 28 -23 64 2 32 0 42 -12 41 -8 -1 -15 6 -15 14 0 11 8 14 29 12 23 -3
27 0 22 13 -6 17 0 35 11 35 3 0 11 -8 18 -17z m-1217 -100 c-29 -27 -77 -71
-106 -98 l-53 -49 2 -213 2 -213 25 7 c22 5 24 3 19 -16 -3 -11 -2 -21 3 -21
4 0 10 -9 13 -20 9 -35 27 -22 27 19 0 31 -6 43 -27 59 -20 15 -25 24 -17 31
7 8 17 2 34 -21 42 -57 38 -213 -7 -249 -23 -20 -14 -44 36 -93 l49 -48 71 3
c43 2 70 0 68 -6 -1 -6 -33 -8 -77 -6 -72 3 -77 5 -128 48 -51 44 -82 51 -82
18 0 -16 -25 -21 -34 -6 -3 4 -16 6 -28 4 -38 -7 -114 33 -138 73 -18 28 -22
46 -18 93 6 81 54 140 116 141 22 0 23 4 21 48 -3 35 0 47 11 47 11 0 14 -12
11 -47 -2 -36 1 -48 12 -48 18 0 17 -6 24 224 l5 199 101 101 c56 56 106 98
110 95 5 -4 -15 -29 -45 -56z m4529 -643 c-3 -11 7 -33 23 -52 23 -29 27 -43
29 -108 1 -41 6 -77 10 -80 5 -3 15 -19 24 -35 16 -32 19 -72 18 -225 l-1 -95
-113 -118 c-61 -64 -117 -117 -123 -117 -7 0 -14 -9 -17 -20 -5 -20 -5 -20 22
-1 15 11 57 52 94 90 37 39 69 71 72 71 15 0 -1 -24 -52 -77 -32 -33 -80 -86
-108 -118 -27 -32 -60 -69 -72 -81 -16 -18 -18 -24 -8 -24 21 0 18 -18 -4 -32
-14 -9 -18 -19 -14 -39 4 -21 1 -27 -16 -32 -12 -3 -24 -1 -27 4 -6 11 -24 2
-24 -11 0 -5 26 -8 58 -7 44 2 57 -1 57 -12 0 -12 -20 -14 -109 -12 -86 2
-107 0 -104 -11 3 -7 13 -11 23 -10 16 3 17 2 6 -12 -12 -14 -11 -16 3 -10 9
3 16 9 16 13 0 3 15 6 33 6 44 0 44 -29 -1 -33 -39 -4 -33 -22 8 -22 19 0 35
9 48 28 18 24 21 25 27 9 7 -18 -28 -56 -52 -57 -15 0 -18 -30 -3 -30 5 0 15
9 22 20 14 21 38 27 38 9 0 -6 -13 -21 -29 -35 -23 -19 -31 -36 -36 -77 -4
-28 -13 -64 -21 -78 -14 -28 -71 -89 -82 -89 -4 0 -50 -43 -102 -95 l-95 -95
-83 0 -84 0 -39 -40 c-22 -22 -53 -47 -69 -55 -33 -17 -93 -20 -120 -5 -32 17
-132 20 -156 5 -17 -11 -59 -12 -208 -8 l-186 6 -41 35 c-41 35 -41 35 -70 18
-20 -12 -51 -17 -104 -17 -70 0 -79 3 -130 36 -57 38 -95 82 -95 109 0 9 -4
16 -9 16 -14 0 -221 212 -216 221 3 4 49 -37 101 -91 53 -55 101 -97 106 -94
6 4 5 10 -3 15 -11 6 -10 12 4 27 25 27 21 33 -18 30 -19 -2 -34 2 -35 7 0 6
12 11 27 13 100 10 97 32 -4 32 -67 1 -82 4 -108 25 -21 18 -27 27 -19 35 8 8
16 4 28 -14 16 -25 21 -26 107 -26 69 0 94 4 106 16 14 14 6 15 -88 13 -80 -1
-104 1 -104 11 0 10 28 13 128 11 89 -2 127 1 127 9 0 6 4 9 8 6 4 -2 14 -1
22 5 10 5 -77 9 -230 10 -135 1 -248 1 -251 1 -4 -1 -15 8 -24 18 -10 11 -24
20 -32 20 -15 0 -17 16 -3 25 6 4 20 -5 31 -19 15 -19 30 -26 54 -26 45 0 37
28 -8 32 -34 3 -40 24 -6 22 13 0 18 4 15 13 -15 38 47 93 104 93 30 0 69 -39
76 -77 l7 -35 68 4 c47 4 69 2 69 -6 0 -7 -25 -11 -70 -11 -52 0 -73 -4 -80
-15 -8 -13 16 -15 196 -18 l205 -2 57 49 57 50 152 2 c84 1 153 -2 153 -6 0
-4 -66 -7 -148 -6 l-147 2 -53 -54 -53 -53 26 -12 c15 -7 25 -8 25 -2 0 6 -5
10 -12 10 -9 0 -9 3 -1 11 7 7 118 10 345 9 l334 -1 24 26 c23 25 25 25 187
25 159 0 163 1 163 21 0 20 -4 21 -80 17 -49 -2 -80 1 -80 7 0 6 36 11 86 11
48 1 89 6 93 11 3 6 13 13 21 16 8 4 -22 6 -68 4 -66 -2 -82 1 -80 12 2 11 28
13 118 13 63 0 106 2 95 5 l-20 6 20 8 c12 5 -14 8 -70 7 -69 -1 -90 2 -90 12
0 10 18 14 65 15 99 3 110 4 110 16 0 7 -22 10 -62 7 -55 -3 -63 -1 -66 16 -3
15 0 18 19 13 13 -3 29 -1 36 5 9 7 13 7 13 -1 0 -6 15 -11 33 -10 17 0 26 3
18 6 -11 5 -11 7 0 14 9 5 -12 9 -53 9 -55 0 -68 3 -68 16 0 9 7 14 18 12 9
-1 23 1 31 6 9 6 12 5 8 -1 -4 -5 6 -8 23 -5 19 3 27 8 23 16 -4 6 1 5 10 -3
11 -9 17 -10 17 -2 0 6 -11 16 -24 20 -13 5 -37 27 -55 47 -29 36 -32 37 -44
20 -13 -18 -15 -17 -40 6 -19 17 -23 28 -16 39 8 12 11 11 23 -3 16 -22 26
-23 26 -3 0 24 9 18 57 -35 59 -66 77 -66 68 -1 -4 33 -2 59 9 85 8 20 11 36
5 36 -5 0 -9 8 -9 18 0 36 -35 55 -85 49 -36 -5 -45 -4 -45 8 0 25 102 20 125
-5 21 -23 40 -27 32 -6 -7 18 23 44 46 41 9 -2 17 1 17 6 0 5 -51 9 -112 9
l-113 0 -52 57 -52 58 0 105 -1 105 105 107 c58 58 107 102 110 98 3 -5 -40
-52 -95 -106 l-100 -97 0 -106 0 -107 48 -47 48 -48 117 2 c64 0 120 5 123 10
3 5 9 7 13 5 4 -3 13 -1 21 5 11 6 8 9 -12 9 -16 0 -28 -4 -28 -8 0 -5 -7 -9
-15 -9 -9 0 -15 9 -15 22 0 19 6 21 56 21 54 0 55 -1 49 -26 -5 -21 -4 -23 7
-10 7 8 12 13 11 11 -2 -2 15 -12 37 -22 45 -20 79 -79 80 -136 0 -18 3 -33 8
-33 4 0 53 46 110 103 l102 102 -1 85 c0 47 -3 79 -6 72 -2 -6 -9 -10 -14 -6
-5 3 -9 -2 -9 -10 0 -9 -5 -16 -11 -16 -8 0 -8 -4 1 -14 30 -37 -23 -187 -61
-174 -10 4 -4 14 19 34 28 25 32 35 32 76 0 52 1 52 -74 48 -34 -2 -106 25
-106 40 0 3 -30 6 -68 8 -60 2 -70 5 -94 32 -31 34 -38 80 -12 80 12 0 15 -6
10 -23 -9 -38 31 -69 83 -65 53 4 49 23 -4 23 -29 0 -40 4 -40 15 0 12 10 14
46 12 46 -4 46 -3 41 26 -8 58 70 152 128 152 23 0 30 5 35 30 4 17 4 44 0 60
-5 24 -3 30 9 30 13 0 15 -7 10 -40 -8 -49 2 -90 21 -90 12 0 15 14 15 63 0
54 -4 67 -24 86 -25 24 -41 65 -31 82 10 15 27 -1 22 -21z m-477 -29 c0 -5
-38 -46 -85 -92 -47 -45 -85 -88 -85 -95 0 -6 -7 -14 -15 -18 -8 -3 -15 -11
-15 -17 0 -7 44 31 98 84 l97 97 93 1 c50 1 98 2 105 3 6 1 12 -5 12 -13 0
-12 -19 -14 -105 -12 l-105 2 -99 -106 -99 -106 -109 3 c-70 1 -107 6 -105 12
2 7 28 10 65 8 51 -3 62 -1 62 11 0 25 -60 29 -368 25 -155 -2 -281 1 -279 5
1 5 145 8 320 7 174 0 317 1 317 4 0 2 3 11 6 20 4 11 1 16 -11 16 -9 0 -26
12 -37 26 -14 17 -28 24 -46 22 -14 -2 -27 3 -29 10 -8 22 44 13 75 -13 59
-49 177 -26 170 33 -2 19 2 27 12 27 23 0 13 -45 -17 -76 -13 -15 -20 -29 -15
-33 5 -3 47 34 93 83 81 86 99 101 99 82z m-1189 -156 c-2 -35 -10 -58 -27
-78 -25 -30 -26 -49 -2 -29 18 14 378 21 378 7 0 -6 -62 -9 -172 -7 l-173 3
-29 -30 c-28 -30 -33 -31 -111 -31 -77 0 -83 1 -110 30 -16 17 -38 30 -50 30
-12 0 -34 -13 -50 -30 -28 -30 -30 -30 -134 -30 l-105 0 -48 -47 c-51 -50 -62
-89 -32 -114 13 -11 17 -10 25 4 12 21 29 22 29 2 0 -8 7 -15 15 -15 8 0 15
-7 15 -15 0 -8 -5 -15 -10 -15 -6 0 -13 7 -16 15 -7 18 -30 20 -40 3 -4 -7 -3
-8 4 -4 7 4 12 2 12 -3 0 -6 -7 -11 -15 -11 -8 0 -15 6 -15 14 0 7 -7 19 -15
26 -8 7 -15 27 -15 45 0 27 10 42 56 84 l56 51 102 0 c96 0 104 1 126 25 15
16 34 25 55 25 21 0 40 -9 55 -25 17 -18 34 -25 60 -25 35 0 36 0 32 40 -4 36
-1 41 24 51 23 9 35 8 56 -4 36 -21 48 -6 48 61 0 38 4 52 12 50 8 -3 11 -22
9 -53z m384 -436 l130 -130 45 3 c25 2 45 -1 45 -7 0 -6 -21 -9 -50 -7 -49 4
-52 5 -180 133 l-130 129 -100 0 -101 0 -54 -55 -54 -55 -153 0 c-95 0 -153 4
-153 10 0 6 59 10 158 10 l158 0 49 50 49 50 106 0 105 0 130 -131z m390 -39
c-107 -105 -122 -133 -90 -160 13 -11 18 -10 31 6 13 16 16 17 21 4 3 -8 37
-45 74 -81 l69 -66 0 -84 0 -84 -77 -77 -78 -77 -315 -1 c-173 -1 -315 1 -315
5 0 4 139 6 309 5 l310 -1 78 78 78 78 0 73 0 74 -72 71 c-54 53 -74 66 -76
54 -5 -23 -20 -21 -43 6 -39 46 -27 72 84 187 56 58 106 103 110 100 4 -4 -40
-53 -98 -110z m-669 94 c-3 -9 -6 -79 -6 -156 l0 -140 -77 -79 -76 -79 -112 0
c-106 0 -113 1 -135 25 l-23 25 -255 0 -254 0 -55 -47 -55 -47 4 -53 c3 -39 1
-53 -8 -53 -10 0 -12 13 -7 53 5 46 12 58 56 105 l51 52 266 0 267 0 23 -25
c22 -23 30 -25 124 -25 l101 0 78 78 78 79 -3 151 c-2 123 0 152 11 152 8 0
11 -6 7 -16z m-1861 -513 c39 -37 82 -75 98 -85 15 -9 27 -22 27 -29 0 -7 15
-28 34 -46 25 -25 39 -31 55 -26 15 5 21 2 21 -10 0 -22 -47 -9 -81 22 -16 14
-29 20 -33 15 -3 -6 12 -26 35 -45 23 -20 36 -38 30 -42 -6 -3 -25 10 -42 30
-24 26 -38 35 -60 33 -38 -3 -72 29 -66 62 4 20 -5 35 -44 74 -43 43 -59 66
-45 66 3 0 27 -24 55 -52 27 -29 53 -49 57 -45 4 4 -21 37 -57 73 -51 52 -69
64 -86 59 -17 -4 -23 -1 -23 10 0 31 55 3 125 -64z"/>
<path d="M5251 1357 c-22 -24 -22 -24 -352 -30 -182 -3 -333 -8 -336 -11 -3
-2 -2 -10 2 -16 4 -7 106 -10 328 -10 235 1 322 -2 322 -10 0 -9 -82 -11 -302
-10 -278 1 -347 -5 -295 -25 9 -3 138 -6 285 -6 182 0 267 -3 265 -10 -2 -7
-93 -10 -273 -10 -260 2 -269 1 -252 -16 16 -16 39 -18 225 -18 292 0 286 -1
354 57 l56 48 141 0 c126 0 161 6 133 24 -5 3 -71 6 -146 7 -186 1 -175 20 13
22 97 1 146 6 148 13 6 18 -33 24 -168 24 -119 0 -127 -1 -148 -23z"/>
<path d="M4653 1155 c0 -24 29 -27 228 -23 161 3 188 5 203 21 17 16 7 17
-207 17 -194 0 -224 -2 -224 -15z"/>
<path d="M5717 1133 c-15 -15 -38 -18 -148 -19 -78 -1 -135 -6 -141 -12 -16
-16 31 -25 97 -20 41 4 55 1 55 -9 0 -9 -16 -13 -54 -13 -59 0 -86 -7 -86 -21
0 -6 34 -9 78 -7 69 3 78 5 87 26 5 12 15 22 22 22 23 0 14 -26 -17 -48 -24
-18 -43 -22 -103 -22 -59 0 -74 -3 -74 -15 0 -12 15 -15 76 -15 l77 0 60 63
c66 69 99 107 93 107 -3 0 -13 -8 -22 -17z"/>
</g>
</svg>
