<?xml version="1.0" standalone="no"?>
<!DOCTYPE svg PUBLIC "-//W3C//DTD SVG 20010904//EN"
 "http://www.w3.org/TR/2001/REC-SVG-20010904/DTD/svg10.dtd">
<svg version="1.0" xmlns="http://www.w3.org/2000/svg"
 width="4961.000000pt" height="4961.000000pt" viewBox="0 0 4961.000000 4961.000000"
 preserveAspectRatio="xMidYMid meet">
<metadata>
Created by potrace 1.16, written by Peter Selinger 2001-2019
</metadata>
<g transform="translate(0.000000,4961.000000) scale(0.100000,-0.100000)"
fill="#000000" stroke="none">
<path d="M16169 46394 c-434 -78 -786 -395 -889 -800 -63 -246 -42 -545 55
-775 95 -226 303 -445 519 -548 165 -79 324 -111 551 -111 283 0 485 57 700
199 74 49 239 204 233 220 -1 5 -38 36 -81 69 l-78 60 -47 -50 c-157 -168
-374 -273 -615 -298 -429 -43 -832 186 -983 558 -51 127 -59 176 -59 362 0
155 3 184 24 255 99 336 361 576 707 650 94 21 290 23 384 6 208 -38 402 -145
535 -294 l54 -61 77 60 c43 32 79 64 81 71 6 17 -183 203 -252 249 -146 95
-319 161 -479 183 -105 15 -344 12 -437 -5z"/>
<path d="M33345 46394 c-44 -8 -117 -26 -163 -40 -98 -30 -264 -112 -255 -127
3 -5 1 -7 -4 -4 -29 18 -297 -229 -286 -262 4 -9 3 -13 -2 -9 -4 4 -14 3 -22
-4 -11 -9 -11 -14 4 -32 10 -12 14 -18 9 -14 -5 4 -15 3 -23 -4 -11 -9 -12 -7
-7 8 5 13 0 10 -14 -8 -12 -14 -22 -33 -22 -42 0 -8 -11 -27 -25 -42 -14 -15
-23 -29 -20 -32 2 -3 -5 -21 -17 -40 -12 -20 -16 -32 -10 -28 7 4 12 3 12 -3
0 -5 -6 -12 -12 -15 -7 -4 -3 -4 10 -2 l22 4 0 -404 c0 -411 0 -411 35 -404 5
1 6 -2 2 -7 -5 -4 -14 -8 -19 -8 -6 0 -13 -6 -16 -14 -3 -8 0 -11 6 -7 14 8
22 -6 26 -48 3 -26 0 -33 -10 -29 -22 8 -7 -39 18 -60 13 -10 17 -15 9 -11 -8
4 0 -14 19 -39 18 -26 35 -47 37 -47 2 0 1 5 -2 10 -3 6 -4 10 -1 10 3 0 10
-10 17 -21 9 -17 8 -20 -2 -14 -7 5 -4 -3 7 -18 23 -31 70 -56 61 -33 -4 10
-1 13 8 10 14 -6 9 -34 -6 -34 -5 0 15 -25 45 -55 50 -51 77 -70 60 -43 -4 7
-3 8 5 4 6 -4 9 -11 6 -16 -7 -12 22 -33 36 -24 8 4 9 3 5 -4 -7 -11 85 -78
115 -84 8 -2 16 -5 19 -8 15 -15 68 -39 74 -33 3 3 6 2 6 -4 0 -12 156 -64
255 -85 40 -9 135 -13 280 -12 205 0 227 2 317 26 189 51 322 125 448 248 174
170 259 346 295 610 8 58 15 124 15 148 l0 42 -460 0 -460 0 0 -105 0 -105
341 0 341 0 -7 -42 c-43 -254 -242 -483 -502 -578 -116 -42 -210 -54 -380 -47
-170 6 -268 29 -413 98 -47 22 -87 41 -90 42 -2 1 -15 12 -29 25 -14 12 -31
20 -38 18 -7 -3 -12 -2 -10 2 1 4 -29 37 -68 72 -38 36 -71 68 -73 72 -2 4
-12 19 -24 33 -17 22 -23 24 -37 13 -14 -12 -15 -11 -1 6 13 16 12 20 -5 32
-10 8 -15 14 -9 14 5 0 5 3 -1 8 -5 4 -27 42 -48 85 -21 42 -42 75 -48 72 -5
-4 -7 -11 -4 -16 3 -5 -1 -6 -10 -3 -14 6 -14 8 -1 18 18 13 16 37 -4 62 -12
15 -12 16 -1 9 10 -6 12 -4 6 6 -5 7 -10 22 -10 32 -1 10 -11 25 -23 33 -12 8
-22 23 -21 32 0 13 3 12 11 -5 6 -13 15 -23 20 -23 5 0 6 6 1 13 -8 12 -9 16
-12 69 0 16 -6 27 -12 25 -6 -1 -13 4 -14 11 -2 7 -1 8 2 2 12 -25 23 7 23 70
0 63 -11 95 -23 70 -4 -7 -5 -6 -3 0 1 7 6 10 11 8 14 -5 26 55 12 64 -9 6 -9
8 1 8 7 0 11 4 7 9 -3 5 -1 12 5 16 15 9 12 45 -3 45 -19 0 -47 -33 -47 -53 0
-9 -4 -17 -9 -17 -13 0 -1 41 17 63 8 9 25 17 37 17 23 0 41 35 24 46 -5 3 -9
11 -8 17 0 9 2 9 6 0 2 -7 9 -13 15 -13 6 0 8 7 4 15 -3 8 -2 15 3 15 11 0 32
71 24 83 -3 6 -1 7 4 4 6 -4 26 19 46 52 26 45 32 62 23 71 -8 8 -7 10 5 5 11
-4 23 3 37 22 115 162 375 314 606 354 113 19 332 7 441 -25 171 -51 342 -147
508 -287 l37 -31 78 73 c42 40 78 76 80 79 5 11 -175 153 -268 211 -113 72
-234 123 -380 161 -104 27 -133 31 -300 34 -135 3 -206 -1 -265 -12z"/>
<path d="M39850 46394 c-231 -42 -419 -136 -584 -294 -171 -163 -268 -331
-318 -553 -28 -121 -30 -361 -5 -488 43 -219 142 -413 286 -563 152 -157 301
-243 523 -301 139 -37 403 -46 560 -20 250 41 461 147 629 317 44 44 79 83 79
87 0 6 -104 86 -148 114 -8 6 -37 -14 -88 -62 -225 -210 -490 -302 -785 -271
-239 24 -407 97 -566 244 -167 154 -260 347 -282 580 -28 291 63 554 259 748
248 245 617 333 967 232 163 -47 276 -115 401 -241 l84 -84 74 57 c41 32 77
61 80 65 9 16 -123 155 -209 220 -146 110 -315 182 -501 214 -109 19 -352 18
-456 -1z"/>
<path d="M7770 46203 c-41 -87 -102 -216 -136 -288 -70 -148 -99 -210 -266
-565 -67 -140 -147 -311 -180 -380 -33 -69 -70 -147 -83 -175 -13 -27 -80
-169 -149 -315 l-125 -265 111 -3 c61 -1 115 1 119 5 5 5 54 105 109 223 56
118 130 275 165 348 l64 132 467 -2 466 -3 168 -350 167 -350 111 -3 c62 -1
112 0 112 3 0 5 -177 388 -310 670 -21 44 -146 312 -278 595 -132 283 -258
553 -280 600 -22 47 -60 129 -85 183 -39 82 -49 97 -69 97 -21 0 -33 -20 -98
-157z m287 -691 l181 -387 -365 -3 c-202 -1 -368 0 -371 3 -4 4 68 160 323
698 21 42 40 77 44 77 3 0 88 -175 188 -388z"/>
<path d="M9280 45286 l0 -1076 105 0 105 0 0 500 0 500 63 0 62 -1 122 -157
c67 -86 235 -303 374 -482 138 -179 257 -333 263 -342 9 -16 28 -18 145 -18
128 0 134 1 118 18 -18 18 -61 72 -177 225 -83 107 -97 126 -220 283 -247 317
-360 464 -360 468 0 2 47 6 104 10 354 24 549 157 616 422 86 335 -106 637
-445 700 -71 13 -174 18 -482 21 l-393 5 0 -1076z m810 854 c104 -17 183 -61
235 -131 61 -83 78 -142 73 -244 -9 -172 -114 -294 -284 -330 -94 -20 -320
-29 -486 -20 l-138 7 0 364 0 364 268 0 c147 0 296 -5 332 -10z"/>
<path d="M10920 46255 l0 -105 240 0 240 0 0 -970 0 -970 110 0 110 0 0 970 0
970 240 0 240 0 0 105 0 105 -590 0 -590 0 0 -105z"/>
<path d="M12410 45285 l0 -1075 105 0 105 0 0 1075 0 1075 -105 0 -105 0 0
-1075z"/>
<path d="M13150 45285 l0 -1075 105 0 105 0 2 528 3 527 428 3 427 2 0 100 0
100 -427 2 -428 3 -3 338 -2 337 430 0 430 0 0 105 0 105 -535 0 -535 0 0
-1075z"/>
<path d="M14600 45285 l0 -1075 105 0 105 0 0 1075 0 1075 -105 0 -105 0 0
-1075z"/>
<path d="M17780 45285 l0 -1075 105 0 105 0 0 1075 0 1075 -105 0 -105 0 0
-1075z"/>
<path d="M35140 45285 l0 -1075 610 0 610 0 0 105 0 105 -505 0 -505 0 0 425
0 425 505 0 505 0 0 100 0 100 -505 0 -505 0 0 340 0 340 510 0 510 0 0 105 0
105 -615 0 -615 0 0 -1075z"/>
<path d="M36770 45285 l0 -1075 110 0 110 0 2 816 3 815 390 -447 c1013 -1163
1027 -1179 1051 -1182 l24 -3 0 1075 0 1076 -100 0 -100 0 0 -820 c0 -479 -4
-820 -9 -820 -5 0 -258 287 -562 638 -902 1040 -869 1002 -895 1002 l-24 0 0
-1075z"/>
<path d="M41490 45285 l0 -1075 610 0 610 0 0 105 0 105 -505 0 -505 0 2 423
3 422 503 3 502 2 0 100 0 100 -502 2 -503 3 -3 338 -2 337 510 0 510 0 0 105
0 105 -615 0 -615 0 0 -1075z"/>
<path d="M18766 45119 c-9 -17 -14 -35 -11 -39 3 -4 -2 -11 -11 -14 -9 -4 -14
-9 -11 -13 4 -3 -3 -17 -13 -31 -13 -16 -17 -29 -11 -36 6 -7 6 -18 1 -25 -4
-8 -6 -21 -3 -30 4 -13 3 -13 -5 -2 -5 7 -8 23 -6 35 4 20 4 20 -5 1 -4 -11
-7 -23 -4 -27 2 -5 -1 -8 -7 -8 -7 0 -6 -5 2 -14 7 -7 17 -13 23 -11 5 1 7 0
3 -2 -5 -3 -8 -9 -8 -14 0 -6 5 -7 10 -4 6 3 10 1 10 -4 0 -16 -20 -13 -26 3
-3 8 -13 17 -22 21 -9 3 -13 3 -10 -1 4 -3 0 -13 -8 -21 -8 -9 -12 -18 -8 -22
4 -3 9 0 11 7 3 6 10 12 16 12 8 0 8 -3 0 -11 -6 -6 -9 -19 -6 -28 4 -14 3
-14 -6 -1 -10 13 -13 12 -27 -5 -16 -21 -124 -242 -129 -265 0 -3 -16 -33 -33
-68 -18 -34 -30 -68 -26 -74 4 -6 3 -8 -3 -5 -10 6 -28 -27 -35 -63 -2 -8 -6
-17 -9 -20 -3 -3 -20 -33 -37 -67 l-31 -61 115 -1 114 -1 20 32 c11 18 18 39
15 46 -3 7 0 10 5 7 6 -3 10 0 10 7 0 7 7 27 16 43 9 17 18 39 20 49 2 11 7
22 11 25 15 11 40 66 36 79 -3 6 0 12 6 12 6 0 7 7 4 17 -5 12 -3 14 8 9 8 -4
5 0 -5 8 -24 19 -42 1 -23 -24 8 -10 5 -9 -9 3 -11 9 -24 14 -27 10 -4 -3 -7
-2 -7 3 0 6 5 15 12 22 9 9 9 12 0 12 -7 0 -12 16 -12 40 0 22 -4 40 -9 40 -5
0 -12 7 -15 16 -5 14 -4 15 8 5 11 -10 14 -5 13 27 -1 34 -3 39 -21 35 -16 -4
-18 -2 -7 5 8 6 10 15 5 23 -6 12 -5 12 8 1 13 -11 16 -9 16 14 0 18 -3 22 -9
13 -7 -11 -9 -10 -9 4 0 9 7 17 15 17 9 0 12 6 8 18 -4 10 -2 14 3 9 5 -5 11
-67 14 -139 4 -106 8 -132 20 -134 8 -1 23 -5 32 -9 14 -5 16 -2 13 14 -2 12
1 20 8 18 6 -1 12 3 12 8 1 6 5 18 9 28 5 9 6 26 3 38 -4 16 -3 18 8 9 9 -8
15 -8 20 0 3 5 0 10 -7 10 -8 1 -6 6 6 15 11 8 16 15 10 15 -5 0 -2 5 6 10 10
7 11 10 2 10 -7 0 -15 -7 -19 -16 -13 -35 -22 15 -24 144 -1 90 2 137 9 144
15 15 15 28 2 28 -5 0 -10 -7 -10 -15 0 -8 -5 -15 -11 -15 -6 0 -8 7 -5 16 3
9 6 19 6 23 0 5 11 7 24 6 19 -2 24 1 23 15 -1 10 -5 16 -9 14 -13 -8 -9 11 5
25 10 11 10 13 0 7 -16 -9 -17 6 -2 21 7 7 7 13 1 17 -6 3 -17 -8 -26 -25z"/>
<path d="M22530 41643 c-8 -3 -136 -126 -285 -274 l-270 -269 -1347 -2 -1348
-3 -468 -468 -467 -467 -47 6 c-39 6 -57 2 -100 -19 -138 -68 -155 -239 -34
-332 108 -82 262 -31 302 100 8 29 12 63 8 83 -7 34 -4 36 437 478 l444 444
1350 0 1349 0 276 275 275 275 2400 0 2400 0 65 -63 c36 -35 73 -67 83 -70 9
-4 17 -12 17 -20 0 -7 11 -23 23 -35 17 -17 24 -18 24 -8 0 8 -5 14 -11 13 -6
-1 -10 4 -8 11 1 8 -2 11 -7 8 -5 -3 -11 4 -14 15 -3 11 -15 23 -26 26 -11 3
-18 9 -15 14 3 5 0 8 -8 7 -7 -2 -12 3 -10 10 1 8 -2 11 -8 7 -5 -3 -10 1 -10
10 0 9 4 14 9 11 11 -7 9 13 -3 32 -4 7 -4 12 1 11 20 -3 31 2 37 19 3 9 13
28 20 41 16 27 11 51 -10 51 -7 0 -11 -6 -8 -13 3 -8 -2 -14 -10 -14 -18 0
-16 17 4 35 13 12 13 13 -3 8 -10 -3 -15 -2 -12 4 7 12 -33 53 -44 45 -5 -2
-11 2 -15 10 -5 13 -291 15 -2463 14 -1352 0 -2465 -3 -2473 -6z"/>
<path d="M22841 40828 c-123 -61 -146 -219 -45 -315 l44 -43 0 -524 0 -524
-502 -501 -503 -501 -1010 0 -1010 0 -530 530 -530 530 359 359 359 359 51 -5
c63 -6 125 23 170 80 28 35 31 46 31 111 0 62 -4 78 -28 114 -36 55 -90 82
-165 82 -116 0 -198 -88 -190 -205 l3 -55 -402 -403 c-375 -375 -403 -405
-403 -437 0 -32 38 -73 600 -635 l600 -600 1090 0 1090 0 547 548 548 547 3
565 2 565 44 43 c158 159 -22 415 -223 315z"/>
<path d="M23573 40831 c-53 -24 -100 -88 -109 -148 -10 -66 10 -120 62 -170
l44 -43 0 -1213 0 -1214 28 -34 c15 -19 81 -86 146 -149 65 -63 141 -139 169
-168 29 -31 56 -51 64 -47 8 3 11 0 8 -6 -9 -13 25 -51 41 -45 6 2 11 -3 10
-12 0 -10 6 -16 16 -16 9 1 14 -4 12 -10 -6 -16 32 -50 45 -41 6 3 8 0 5 -8
-8 -21 14 -31 34 -15 15 12 16 11 3 -5 -12 -15 -11 -20 4 -37 20 -22 40 -27
29 -7 -4 7 -3 8 2 4 5 -5 9 -16 9 -25 0 -10 7 -16 17 -16 10 1 15 -3 12 -8 -3
-5 2 -18 12 -29 17 -19 40 -27 29 -10 -5 9 33 7 42 -2 9 -9 11 -47 2 -42 -5 4
-9 3 -9 -2 0 -9 50 -53 61 -53 4 0 11 -9 14 -20 8 -25 24 -27 20 -2 -3 23 24
91 47 114 22 22 23 32 3 48 -15 13 -39 5 -29 -11 3 -5 9 -7 14 -4 5 3 11 1 14
-4 7 -11 -20 -9 -31 2 -11 11 -13 38 -2 31 36 -22 -31 50 -313 334 -178 178
-329 330 -335 337 -10 11 -13 265 -13 1202 l0 1189 30 22 c43 33 73 97 73 159
0 141 -149 233 -280 174z"/>
<path d="M24282 40825 c-68 -35 -105 -94 -105 -168 0 -61 29 -124 70 -157 l28
-22 5 -1074 5 -1074 221 -220 c203 -202 224 -219 245 -211 21 9 22 10 4 11
-16 0 -17 2 -6 9 10 7 19 4 28 -7 14 -20 17 -52 4 -52 -5 0 -7 10 -5 23 4 20
4 21 -5 2 -5 -11 -10 -14 -10 -7 -1 6 -6 12 -12 12 -5 0 2 -16 17 -35 29 -38
47 -35 58 10 3 13 15 27 26 30 11 3 20 10 20 15 0 5 8 7 18 3 16 -6 16 -5 -1
14 -20 23 -55 23 -72 -1 -7 -9 -15 -13 -18 -9 -6 10 7 35 17 34 16 -2 18 0 6
14 -6 8 -9 18 -6 23 3 5 -3 17 -13 26 -12 11 -18 27 -15 41 4 21 1 24 -23 22
-19 -1 -28 3 -28 13 0 8 -7 15 -15 15 -10 0 -14 9 -13 28 2 24 -1 27 -22 23
-30 -6 -64 30 -59 62 3 19 0 22 -21 18 -14 -3 -28 0 -31 6 -4 6 -2 8 4 4 18
-11 26 15 9 31 -16 17 -42 9 -31 -9 4 -6 2 -8 -4 -4 -6 3 -8 18 -6 32 4 20 1
25 -10 21 -9 -4 -13 -1 -10 6 2 7 -11 28 -31 47 l-35 34 0 1033 0 1033 44 43
c93 89 83 227 -22 301 -60 42 -130 46 -200 11z"/>
<path d="M25010 40834 c-137 -59 -163 -255 -45 -335 l35 -24 1 -910 c0 -500 2
-923 4 -939 4 -30 97 -131 109 -119 3 4 6 -1 6 -10 0 -18 35 -41 50 -32 5 3 7
0 5 -8 -7 -17 31 -67 50 -67 8 0 21 -13 30 -30 9 -16 18 -30 21 -30 10 0 -9
45 -23 56 -16 11 -26 104 -12 104 5 0 9 -7 9 -15 0 -21 27 -19 32 3 3 10 4 32
3 49 -1 21 2 30 9 26 6 -4 3 3 -8 15 -10 12 -23 19 -28 16 -4 -3 -7 -1 -6 4 2
5 -16 29 -40 53 l-43 44 1 892 0 892 48 48 c66 66 80 138 43 218 -44 96 -156
140 -251 99z"/>
<path d="M25725 40835 c-71 -25 -125 -108 -125 -190 1 -45 33 -108 73 -141
l36 -29 2 -797 c1 -590 4 -798 13 -801 8 -3 11 24 11 96 0 67 4 105 13 113 6
7 12 20 12 28 0 9 6 16 14 16 7 0 16 9 19 21 3 11 15 23 26 26 12 3 21 12 21
19 0 8 5 14 10 14 6 0 11 17 11 38 l2 37 6 -35 c6 -33 7 -34 14 -10 4 14 7
298 7 632 l0 607 30 23 c76 56 93 190 34 265 -58 73 -143 98 -229 68z"/>
<path d="M26458 40843 c-10 -2 -18 -9 -18 -14 0 -6 -5 -7 -10 -4 -18 11 -97
-77 -109 -121 -19 -71 6 -147 65 -200 l35 -30 -1 -232 c0 -194 2 -232 14 -232
16 0 46 42 46 65 0 8 6 15 14 15 7 0 16 9 19 21 3 11 15 23 25 26 13 3 24 18
30 41 9 35 10 34 11 -25 1 -36 -3 -63 -9 -63 -6 0 -10 -33 -9 -82 l1 -83 14
95 c7 52 15 176 18 274 l5 179 44 42 c39 37 72 96 44 78 -6 -3 -3 4 6 17 13
19 14 27 4 39 -9 12 -9 13 1 7 6 -4 12 -3 12 3 0 5 -5 13 -10 16 -6 4 -8 11
-5 16 4 5 3 15 -2 22 -4 6 -8 19 -10 27 -1 8 -11 22 -22 31 -11 9 -17 19 -14
23 4 3 1 6 -6 6 -7 0 -19 7 -28 16 -9 8 -22 13 -30 10 -8 -3 -12 -2 -9 3 10
16 -73 26 -116 14z"/>
<path d="M19895 40226 c-41 -18 -92 -77 -106 -125 -24 -79 10 -171 80 -218 42
-28 88 -37 148 -28 39 6 57 16 97 56 l49 49 739 0 739 0 32 -37 c123 -140 347
-59 347 125 0 53 -42 132 -86 162 -79 53 -211 33 -266 -40 l-22 -30 -746 0
-746 0 -22 30 c-47 63 -160 90 -237 56z"/>
<path d="M17436 40178 c-22 -6 -57 -29 -84 -54 l-46 -44 -283 0 c-192 0 -291
-4 -306 -11 -32 -17 -266 -250 -264 -263 1 -6 -3 -10 -9 -9 -13 2 -309 -294
-309 -310 0 -7 -6 -12 -12 -12 -15 0 -69 -56 -66 -67 2 -5 -1 -7 -5 -5 -12 3
-82 -65 -76 -75 3 -5 1 -7 -4 -6 -5 2 -34 -22 -64 -52 -30 -30 -62 -61 -70
-68 -12 -10 -210 -12 -954 -12 l-938 0 -35 -25 c-20 -13 -712 -702 -1538
-1530 -827 -828 -1507 -1505 -1513 -1505 -5 0 -9 -3 -8 -7 2 -5 -1 -9 -7 -10
-5 -2 -10 3 -10 10 0 17 -45 20 -81 6 -16 -7 -32 -12 -35 -11 -4 1 -24 -15
-45 -34 -22 -19 -32 -32 -24 -29 8 4 4 -2 -9 -12 -13 -12 -24 -32 -25 -50 -2
-16 -6 -34 -9 -40 -7 -10 4 -57 24 -106 11 -27 12 -27 33 -10 19 16 19 16 7 1
-16 -22 -9 -43 20 -58 12 -7 19 -8 15 -2 -3 6 -1 14 5 18 7 4 9 3 6 -3 -8 -12
22 -40 43 -41 8 -1 22 -2 30 -3 35 -5 67 3 90 22 14 11 19 17 11 13 -9 -4 -12
-3 -8 4 4 5 15 8 26 5 22 -6 67 48 75 89 2 15 8 32 11 38 4 6 1 18 -7 27 -9
12 -9 15 0 9 6 -4 12 -2 12 3 0 6 -6 11 -14 11 -8 0 -18 4 -21 10 -4 6 1 7 12
3 16 -6 17 -5 3 12 -8 10 -10 16 -4 12 15 -9 38 19 28 34 -5 8 -3 9 5 5 17
-11 86 58 75 75 -5 8 -3 10 5 5 17 -11 86 58 75 75 -5 8 -3 10 5 5 17 -11 86
58 75 75 -5 8 -3 10 5 5 17 -11 86 58 75 75 -5 8 -3 10 5 5 17 -11 86 58 75
75 -5 8 -3 10 5 5 17 -11 86 58 75 75 -5 8 -3 10 5 5 17 -11 86 58 75 75 -5 8
-3 10 5 5 17 -11 86 58 75 75 -5 8 -3 10 5 5 17 -11 86 58 75 75 -5 8 -3 10 5
5 17 -11 86 58 75 75 -5 8 -3 10 5 5 17 -11 86 58 75 75 -5 8 -3 10 5 5 17
-11 86 58 75 75 -5 8 -3 10 5 5 17 -11 86 58 75 75 -5 8 -3 10 5 5 17 -11 86
58 75 75 -5 8 -3 10 5 5 17 -11 86 58 75 75 -5 8 -3 10 5 5 17 -11 86 58 75
75 -5 8 -3 10 5 5 17 -11 86 58 75 75 -5 8 -3 10 5 5 17 -11 86 58 75 75 -5 8
-3 10 5 5 17 -11 86 58 75 75 -5 8 -3 10 5 5 17 -11 86 58 75 75 -5 8 -3 10 5
5 17 -11 86 58 75 75 -5 8 -3 10 5 5 17 -11 86 58 75 75 -5 8 -3 10 5 5 17
-11 86 58 75 75 -5 8 -3 10 5 5 17 -11 86 58 75 75 -5 8 -3 10 5 5 17 -11 86
58 75 75 -5 8 -3 10 5 5 17 -11 86 58 75 75 -5 8 -3 10 5 5 17 -11 86 58 75
75 -5 8 -3 10 5 5 17 -11 86 58 75 75 -5 8 -3 10 5 5 17 -11 86 58 75 75 -5 8
-3 10 5 5 17 -11 86 58 75 75 -5 8 -3 10 5 5 17 -11 86 58 75 75 -5 8 -3 10 5
5 17 -11 86 58 75 75 -5 8 -3 10 5 5 17 -11 86 58 75 75 -5 8 -3 10 5 5 17
-11 86 58 75 75 -5 8 -3 10 5 5 17 -11 86 58 75 75 -5 8 -3 10 5 5 17 -11 86
58 75 75 -5 8 -3 10 5 5 15 -10 86 58 76 73 -3 6 0 9 8 5 8 -3 18 -1 22 5 4 8
294 11 957 11 l952 0 432 432 c238 238 430 436 427 441 -2 4 1 6 9 5 7 -2 12
4 10 12 -3 12 -1 13 9 3 10 -10 77 -13 265 -13 l251 0 44 -44 c96 -95 223 -82
303 31 71 101 14 249 -113 292 -39 13 -52 13 -105 -1z"/>
<path d="M17546 39588 c-22 -13 -53 -40 -70 -61 -28 -35 -31 -45 -31 -111 0
-64 3 -77 27 -109 49 -64 84 -82 162 -83 l68 -1 639 -639 c351 -351 639 -643
639 -649 0 -5 -646 -656 -1435 -1445 l-1435 -1435 0 -3382 0 -3381 33 -39 c18
-21 126 -130 241 -243 115 -113 216 -213 224 -222 9 -9 19 -15 24 -12 5 3 7 1
6 -4 -4 -11 331 -347 355 -355 9 -4 17 -13 17 -21 0 -8 15 -26 33 -40 17 -15
37 -30 43 -35 7 -5 15 -2 22 9 9 15 8 21 -6 32 -15 12 -16 11 -4 -4 7 -9 9
-18 5 -20 -12 -7 -54 18 -45 26 4 4 0 6 -8 4 -8 -2 -14 3 -12 10 1 8 -2 11 -8
7 -5 -3 -10 1 -10 10 0 9 4 14 8 11 4 -2 8 6 8 19 0 13 -4 21 -8 19 -4 -3 -8
4 -8 15 0 12 4 21 9 21 10 0 21 26 30 68 1 4 8 -4 15 -17 11 -20 14 -21 19 -7
4 10 3 15 -1 12 -5 -3 -16 8 -26 25 -9 16 -24 29 -32 29 -8 0 -14 4 -14 9 0 9
-45 56 -511 528 l-219 222 0 3318 0 3318 1455 1455 c1449 1449 1455 1455 1455
1495 0 40 -6 46 -688 728 l-689 688 4 52 c5 64 -24 127 -79 170 -52 41 -145
48 -202 15z"/>
<path d="M19912 39489 c-18 -6 -50 -27 -72 -49 -89 -89 -75 -233 28 -302 81
-54 178 -43 249 28 l44 44 739 0 739 0 44 -43 c69 -69 153 -81 239 -34 98 54
127 191 59 284 -72 100 -209 108 -300 17 l-44 -44 -737 0 -737 0 -44 44 c-60
60 -127 78 -207 55z"/>
<path d="M16965 39001 c-80 -36 -111 -91 -117 -203 l-3 -48 -1407 -1408 -1408
-1409 0 -4289 0 -4289 817 -817 c621 -620 822 -816 836 -812 10 3 25 0 34 -8
15 -12 15 -11 4 10 -7 13 -20 22 -29 20 -24 -4 -42 10 -35 27 3 9 0 22 -7 30
-7 8 -9 15 -4 15 17 0 29 -15 29 -35 0 -13 8 -21 22 -23 12 -2 27 -10 33 -18
7 -8 17 -14 23 -14 5 0 2 9 -9 21 -19 21 -19 21 1 18 12 -3 20 2 20 11 0 8 8
14 16 12 11 -1 15 5 14 20 -1 25 -109 145 -126 140 -6 -1 -8 1 -6 5 3 5 -323
337 -724 738 l-729 730 0 4221 0 4220 1385 1384 1384 1384 51 -3 c27 -1 66 3
84 9 43 14 100 75 116 125 51 155 -116 304 -265 236z"/>
<path d="M15635 38555 c-27 -14 -59 -39 -70 -56 l-20 -29 -690 -3 c-607 -2
-690 -4 -687 -17 3 -12 1 -13 -9 -2 -11 10 -21 4 -51 -29 -46 -50 -43 -66 3
-18 l32 34 -22 -32 c-12 -18 -27 -34 -32 -34 -19 -3 -24 -5 -37 -12 -7 -5 -10
-12 -7 -17 7 -11 -26 -50 -45 -53 -23 -4 -41 -17 -35 -27 7 -11 -26 -50 -45
-53 -23 -4 -41 -17 -35 -27 7 -11 -26 -50 -45 -53 -23 -4 -41 -17 -35 -27 7
-11 -26 -50 -45 -53 -23 -4 -41 -17 -35 -27 7 -11 -26 -50 -45 -53 -23 -4 -41
-17 -35 -27 7 -11 -26 -50 -45 -53 -23 -4 -41 -17 -35 -27 7 -11 -26 -50 -45
-53 -23 -4 -41 -17 -35 -27 7 -11 -26 -50 -45 -53 -23 -4 -41 -17 -35 -27 7
-11 -26 -50 -45 -53 -23 -4 -41 -17 -35 -27 7 -11 -26 -50 -45 -53 -23 -4 -41
-17 -35 -27 7 -11 -26 -50 -45 -53 -23 -4 -41 -17 -35 -27 7 -11 -26 -50 -45
-53 -23 -4 -41 -17 -35 -27 7 -11 -26 -50 -45 -53 -23 -4 -41 -17 -35 -27 7
-11 -26 -50 -45 -53 -23 -4 -41 -17 -35 -27 7 -11 -26 -50 -45 -53 -23 -4 -41
-17 -35 -27 7 -11 -26 -50 -45 -53 -23 -4 -41 -17 -35 -27 7 -11 -26 -50 -45
-53 -23 -4 -41 -17 -35 -27 7 -11 -26 -50 -45 -53 -23 -4 -41 -17 -35 -27 7
-11 -26 -50 -45 -53 -23 -4 -41 -17 -35 -27 7 -11 -26 -50 -45 -53 -23 -4 -41
-17 -35 -27 7 -11 -26 -50 -45 -53 -23 -4 -41 -17 -35 -27 7 -11 -26 -50 -45
-53 -23 -4 -41 -17 -35 -27 7 -11 -26 -50 -45 -53 -23 -4 -41 -17 -35 -27 7
-11 -26 -50 -45 -53 -23 -4 -41 -17 -35 -27 7 -11 -26 -50 -45 -53 -23 -4 -41
-17 -35 -27 7 -11 -26 -50 -45 -53 -23 -4 -41 -17 -35 -27 7 -11 -26 -50 -45
-53 -23 -4 -41 -17 -35 -27 7 -11 -26 -50 -45 -53 -23 -4 -41 -17 -35 -27 7
-11 -26 -50 -45 -53 -23 -4 -41 -17 -35 -27 7 -11 -26 -50 -45 -53 -23 -4 -41
-17 -35 -27 7 -11 -26 -50 -45 -53 -23 -4 -41 -17 -35 -27 7 -11 -26 -50 -45
-53 -23 -4 -41 -17 -35 -27 7 -11 -26 -50 -45 -53 -23 -4 -41 -17 -35 -27 7
-11 -26 -50 -45 -53 -23 -4 -41 -17 -35 -27 7 -11 -26 -50 -45 -53 -23 -4 -41
-17 -35 -27 7 -11 -26 -50 -45 -53 -23 -4 -41 -17 -35 -27 7 -11 -26 -50 -45
-53 -23 -4 -41 -17 -35 -27 7 -11 -26 -50 -45 -53 -23 -4 -41 -17 -35 -27 7
-11 -26 -50 -45 -53 -23 -4 -41 -17 -35 -27 7 -11 -26 -50 -45 -53 -24 -4 -41
-18 -35 -28 8 -12 -42 -62 -54 -54 -10 6 -24 -11 -27 -33 -3 -17 -24 -42 -35
-42 -5 0 0 9 12 21 11 11 18 23 15 27 -7 6 -36 -31 -48 -61 -5 -10 -7 -479 -5
-1042 l2 -1024 25 -23 24 -23 -19 25 -20 25 22 -19 c13 -10 20 -22 17 -27 -6
-11 34 -51 45 -45 10 7 43 -28 35 -36 -8 -9 35 -50 45 -44 10 7 43 -28 35 -36
-8 -9 35 -50 46 -43 10 6 23 -12 27 -35 2 -18 62 -70 77 -67 5 1 10 -5 11 -14
0 -8 129 -146 288 -305 l287 -289 0 -708 0 -709 -44 -43 c-68 -66 -84 -146
-43 -225 35 -70 85 -103 161 -108 125 -8 206 68 206 193 0 66 -16 100 -64 143
l-36 31 -2 750 -3 751 -472 473 -473 472 0 976 0 976 25 23 c13 12 22 27 18
33 -3 6 -2 7 4 4 13 -8 86 67 76 78 -5 4 -3 5 3 2 14 -8 87 66 77 78 -5 4 -3
5 3 2 14 -8 87 66 77 78 -5 4 -3 5 3 2 14 -8 87 66 77 78 -5 4 -3 5 3 2 14 -8
87 66 77 78 -5 4 -3 5 3 2 12 -7 87 65 79 76 -3 4 -2 5 2 2 10 -8 83 67 76 78
-3 6 -2 7 4 4 13 -8 86 67 76 78 -5 4 -3 5 3 2 14 -8 87 66 77 78 -5 4 -3 5 3
2 14 -8 87 66 77 78 -5 4 -3 5 3 2 14 -8 87 66 77 78 -5 4 -3 5 3 2 14 -8 87
66 77 78 -5 4 -3 5 3 2 14 -8 87 66 77 78 -5 4 -3 5 3 2 14 -8 87 66 77 78 -5
4 -3 5 3 2 14 -8 87 66 77 78 -5 4 -3 5 3 2 14 -8 87 66 77 78 -5 4 -3 5 3 2
14 -8 87 66 77 78 -5 4 -3 5 3 2 14 -8 87 66 77 78 -5 4 -3 5 3 2 14 -8 87 66
77 78 -5 4 -3 5 3 2 14 -8 87 66 77 78 -5 4 -3 5 3 2 14 -8 87 66 77 78 -5 4
-3 5 3 2 14 -8 87 66 77 78 -5 4 -3 5 3 2 14 -8 87 66 77 78 -5 4 -3 5 3 2 14
-8 87 66 77 78 -5 4 -3 5 3 2 14 -8 87 66 77 78 -5 4 -3 5 3 2 14 -8 87 66 77
78 -5 4 -3 5 3 2 14 -8 87 66 77 78 -5 4 -3 5 3 2 12 -7 87 65 79 76 -3 4 -2
5 2 2 10 -8 83 67 76 78 -3 6 -2 7 4 4 13 -8 86 67 76 78 -5 4 -3 5 3 2 14 -8
87 66 77 78 -5 4 -3 5 3 2 14 -8 87 66 77 78 -5 4 -3 5 3 2 14 -8 87 66 77 78
-5 4 -3 5 3 2 14 -8 87 66 77 78 -5 4 -3 5 3 2 14 -8 87 66 77 78 -5 4 -3 5 3
2 14 -8 87 66 77 78 -5 4 -3 5 3 2 14 -8 87 66 77 78 -5 4 -3 5 3 2 12 -7 87
65 79 76 -3 4 -2 5 2 2 10 -8 83 67 76 78 -3 6 -2 7 4 4 9 -6 86 64 81 74 -2
2 -1 3 1 1 3 -1 26 18 51 43 l46 45 654 0 c360 0 661 0 668 0 7 0 11 -4 8 -8
-9 -14 58 -72 95 -82 135 -39 252 41 258 177 2 54 -12 94 -52 139 -30 35 -65
52 -123 59 -41 5 -57 2 -99 -20z"/>
<path d="M17395 38553 c-48 -25 -72 -52 -95 -106 -16 -37 -20 -61 -16 -91 l7
-40 -1350 -1351 c-1170 -1170 -1351 -1355 -1356 -1385 -3 -19 -4 -1809 -3
-3978 l3 -3943 685 -680 c377 -375 689 -685 693 -689 5 -5 21 -22 37 -39 29
-31 65 -46 40 -17 -9 12 -8 15 8 13 16 -1 19 -5 11 -19 -6 -12 -6 -25 1 -38
15 -27 21 -25 16 6 -3 15 2 32 12 43 9 10 22 26 28 37 6 10 22 19 34 19 39 1
33 18 -26 75 -54 52 -90 68 -106 45 -4 -5 -6 0 -6 11 1 11 8 21 15 21 6 0 10
-4 7 -9 -3 -4 0 -8 5 -8 22 0 9 17 -72 98 -69 68 -85 80 -97 70 -12 -11 -12
-10 -2 3 9 13 5 22 -26 52 -31 31 -40 35 -52 25 -12 -11 -12 -10 -2 3 9 13 5
22 -26 52 -31 31 -40 35 -52 25 -12 -11 -12 -10 -2 3 9 13 -2 28 -66 92 -65
64 -80 75 -92 65 -12 -11 -12 -10 -2 2 9 13 -54 81 -388 415 l-400 400 0 3896
0 3896 1329 1328 1330 1328 64 1 c52 1 71 6 105 29 94 62 115 193 45 285 -50
66 -166 93 -238 55z"/>
<path d="M17849 38111 c-81 -26 -133 -103 -132 -197 l0 -62 -1288 -1288 -1289
-1289 0 -3630 0 -3630 488 -488 c268 -268 492 -484 497 -480 4 4 5 3 2 -3 -8
-14 66 -87 78 -77 4 5 6 4 3 -2 -7 -13 17 -36 28 -27 4 4 4 2 1 -4 -7 -12 35
-57 46 -49 4 3 5 2 2 -1 -2 -4 21 -33 52 -64 47 -48 62 -57 85 -55 23 3 26 2
15 -9 -6 -8 -16 -12 -22 -9 -5 3 4 -8 20 -25 17 -16 32 -30 35 -29 15 1 40
-17 40 -29 0 -8 5 -14 10 -14 15 0 12 16 -5 30 -8 7 -12 16 -9 21 3 5 -3 6
-12 2 -13 -5 -15 -3 -9 7 6 10 4 12 -11 6 -15 -6 -17 -5 -6 5 6 7 12 24 11 38
0 15 -3 20 -6 13 -4 -10 -8 -9 -18 5 -11 14 -17 15 -39 5 -23 -10 -25 -10 -15
6 12 20 70 23 77 5 6 -19 19 -16 43 8 26 26 43 13 44 -33 1 -29 4 -32 32 -33
40 -1 47 -8 48 -48 0 -18 4 -31 8 -29 4 1 12 2 18 2 6 0 3 7 -5 16 -20 20 -21
35 -1 28 23 -9 18 7 -12 38 -29 30 -49 37 -39 13 7 -20 -8 -19 -28 1 -20 20
-21 35 -1 28 8 -4 15 -2 15 3 0 14 -179 188 -191 185 -6 -1 -8 1 -5 6 8 13
-64 83 -77 75 -6 -3 -7 -2 -4 4 8 13 -63 84 -76 76 -6 -3 -7 -1 -3 6 5 8 -161
181 -463 484 l-471 472 0 3550 0 3550 1269 1269 1270 1270 51 -3 c69 -3 112
13 154 59 111 123 38 313 -125 325 -29 3 -66 1 -80 -4z"/>
<path d="M24794 38046 c1 -8 10 -23 19 -34 9 -10 14 -21 11 -25 -4 -3 1 -14
10 -23 9 -9 20 -14 23 -10 10 10 52 -35 46 -50 -3 -8 -9 -11 -14 -8 -5 3 -9 0
-9 -5 0 -6 5 -11 11 -11 8 0 7 -6 -2 -17 -11 -16 -11 -16 1 -5 8 7 15 17 15
23 0 5 5 8 10 7 6 -2 9 -6 7 -11 -1 -4 9 -5 23 -3 15 3 23 1 20 -5 -4 -5 -11
-7 -16 -4 -14 9 -11 -5 5 -21 16 -16 30 -19 21 -5 -3 5 -1 12 4 15 5 4 8 -2 6
-11 -2 -10 -4 -22 -4 -26 -1 -5 -5 -5 -11 -2 -5 3 -10 1 -10 -4 0 -6 5 -11 11
-11 8 0 7 -6 -2 -17 -13 -16 -12 -17 3 -5 10 8 17 17 16 20 -1 4 2 15 7 25 6
14 10 15 22 6 11 -10 11 -14 1 -20 -11 -7 -11 -9 0 -9 7 0 10 -5 6 -12 -4 -6
-3 -8 3 -5 13 8 36 -17 25 -28 -4 -5 -1 -5 6 -1 7 4 12 2 12 -6 0 -11 2 -11 9
0 6 10 10 10 20 -2 9 -11 9 -15 -1 -19 -11 -4 -10 -6 0 -6 7 -1 10 -6 7 -11
-4 -6 -1 -9 6 -8 7 2 13 -4 14 -11 0 -9 11 -16 28 -16 15 -1 26 -1 25 1 -102
105 -371 375 -378 379 -4 3 -7 -1 -6 -9z"/>
<path d="M14475 37970 c-3 -5 -13 -6 -22 -3 -12 5 -14 3 -8 -7 5 -8 3 -11 -6
-8 -14 6 -89 -30 -89 -42 0 -4 -9 -17 -20 -30 -11 -13 -21 -30 -21 -39 -6 -74
-6 -98 1 -112 6 -10 3 -19 -11 -27 -11 -7 -18 -21 -16 -35 1 -17 -3 -22 -19
-20 -26 3 -59 -31 -59 -61 0 -15 -6 -21 -21 -21 -30 0 -64 -33 -61 -59 1 -15
-4 -21 -19 -21 -30 0 -64 -33 -61 -59 1 -16 -3 -20 -19 -19 -26 3 -59 -31 -59
-61 0 -15 -6 -21 -21 -21 -30 0 -64 -33 -61 -59 1 -16 -3 -20 -19 -19 -26 3
-59 -31 -59 -61 0 -15 -6 -21 -21 -21 -30 0 -64 -33 -61 -59 1 -15 -4 -21 -19
-21 -30 0 -64 -33 -61 -59 1 -15 -4 -21 -19 -21 -30 0 -64 -33 -61 -59 1 -15
-4 -21 -19 -21 -30 0 -64 -33 -61 -59 1 -15 -4 -21 -19 -21 -30 0 -64 -33 -61
-59 1 -15 -4 -21 -19 -21 -30 0 -64 -33 -61 -59 1 -15 -4 -21 -19 -21 -30 0
-64 -33 -61 -59 1 -15 -4 -21 -19 -21 -30 0 -64 -33 -61 -59 1 -15 -4 -21 -19
-21 -30 0 -64 -33 -61 -59 1 -15 -4 -21 -19 -21 -30 0 -64 -33 -61 -59 1 -15
-4 -21 -19 -21 -30 0 -64 -33 -61 -59 1 -15 -4 -21 -19 -21 -30 0 -64 -33 -61
-59 1 -15 -4 -21 -19 -21 -30 0 -64 -33 -61 -59 1 -15 -4 -21 -19 -21 -30 0
-64 -33 -61 -59 1 -15 -4 -21 -19 -21 -30 0 -64 -33 -61 -59 1 -15 -4 -21 -19
-21 -30 0 -64 -33 -61 -59 1 -15 -4 -21 -19 -21 -30 0 -64 -33 -61 -59 1 -15
-4 -21 -19 -21 -30 0 -64 -33 -61 -59 1 -15 -4 -21 -19 -21 -30 0 -64 -33 -61
-59 1 -15 -4 -21 -19 -21 -30 0 -64 -33 -61 -59 1 -15 -4 -21 -19 -21 -30 0
-64 -33 -61 -59 1 -15 -4 -21 -19 -21 -30 0 -64 -33 -61 -59 1 -16 -3 -20 -19
-19 -26 3 -59 -31 -59 -61 0 -15 -6 -21 -21 -21 -30 0 -64 -33 -61 -59 1 -15
-4 -21 -19 -21 -30 0 -64 -33 -61 -59 1 -15 -4 -21 -19 -21 -30 0 -64 -33 -61
-59 1 -15 -4 -21 -19 -21 -30 0 -64 -33 -61 -59 1 -15 -4 -21 -19 -21 -30 0
-64 -33 -61 -59 1 -15 -4 -21 -19 -21 -30 0 -64 -33 -61 -59 1 -16 -3 -20 -20
-19 -11 1 -27 -5 -35 -14 -11 -14 -11 -16 1 -8 10 6 12 4 7 -4 -5 -7 -11 -10
-14 -7 -8 9 -62 -45 -62 -61 0 -9 5 -11 13 -7 10 6 10 4 0 -7 -10 -10 -13
-184 -13 -797 0 -776 0 -784 21 -813 18 -26 49 -43 34 -20 -3 5 -1 12 4 16 6
3 8 -4 6 -17 -5 -22 31 -66 48 -60 5 1 6 -2 3 -6 -7 -11 28 -44 37 -37 4 3 5
2 3 -1 -7 -9 27 -44 36 -38 5 3 7 1 6 -4 -2 -5 160 -175 360 -376 l362 -367 0
-2193 c0 -1579 3 -2202 11 -2225 11 -32 52 -61 88 -61 11 0 33 12 50 26 l31
26 0 2251 0 2251 -464 466 c-340 340 -465 472 -467 490 -1 14 -1 344 -1 734
l2 710 1441 1441 c792 792 1445 1449 1451 1458 6 12 13 15 21 8 16 -13 76 -21
82 -11 3 5 -1 10 -7 13 -7 3 -3 4 9 4 12 -1 19 -5 17 -9 -7 -11 7 -10 25 1 8
5 10 14 5 22 -6 11 -5 12 7 2 18 -14 39 0 39 27 0 12 2 13 9 1 7 -11 15 -2 34
35 29 60 31 147 2 190 -28 43 -68 74 -82 63 -7 -7 -14 -6 -19 2 -5 8 -3 9 6 4
9 -5 11 -4 6 3 -4 6 -23 16 -44 22 -46 12 -49 12 -57 0z"/>
<path d="M21880 37944 c-19 -8 -49 -28 -65 -44 l-31 -30 -1057 -2 -1057 -3
-1505 -1505 -1505 -1505 0 -3172 0 -3171 26 -31 c14 -17 31 -28 36 -24 6 3 8
2 5 -4 -8 -13 107 -126 118 -116 4 5 5 3 2 -3 -6 -10 21 -43 30 -36 1 1 3 -1
4 -5 1 -16 42 -52 52 -46 6 3 7 1 4 -4 -8 -13 17 -36 28 -25 5 4 5 2 2 -4 -3
-6 77 -93 179 -195 101 -101 184 -180 184 -175 0 5 7 3 15 -4 8 -6 14 -15 13
-18 -2 -19 4 -21 25 -7 30 19 41 8 22 -21 -13 -20 -12 -24 2 -36 9 -7 18 -12
20 -10 1 1 3 -1 2 -4 -2 -10 54 -63 61 -59 4 3 13 -2 20 -10 7 -8 9 -15 4 -15
-4 0 5 -13 21 -30 25 -26 54 -33 39 -9 -3 5 -9 7 -14 4 -9 -6 -23 12 -26 33
-1 7 5 11 13 10 9 -2 18 4 20 12 4 13 3 13 -6 0 -8 -12 -11 -12 -11 -1 0 10
-3 11 -13 2 -11 -8 -18 -6 -32 9 -10 11 -21 17 -25 15 -12 -7 -28 18 -24 38 1
11 0 16 -3 14 -3 -3 -11 0 -18 6 -10 9 -10 15 -1 26 8 12 8 13 -1 7 -7 -4 -13
-2 -13 3 0 6 6 11 13 11 8 0 7 4 -3 10 -11 7 -11 10 -2 10 7 0 10 5 6 11 -5 8
-9 8 -14 -1 -6 -9 -9 -9 -13 1 -4 10 -6 10 -6 2 -1 -7 -6 -13 -12 -13 -5 0 -7
6 -3 13 6 9 5 9 -8 -1 -21 -17 -44 7 -25 28 9 10 9 11 0 6 -7 -4 -13 -2 -13 3
0 6 5 11 11 11 6 0 9 9 6 20 -3 11 -1 20 5 20 5 0 6 6 2 13 -6 8 -3 8 9 -1 9
-8 21 -11 27 -7 14 9 2 27 -13 19 -7 -3 -3 2 7 10 24 19 32 20 42 4 5 -7 2 -9
-9 -5 -11 4 -14 2 -10 -9 3 -8 8 -12 11 -10 9 10 32 -16 25 -28 -20 -31 -8
-67 13 -39 13 17 15 17 29 -1 8 -11 15 -16 15 -12 0 5 7 3 15 -4 8 -7 13 -16
10 -20 -3 -4 2 -10 10 -14 8 -3 15 -10 15 -16 0 -6 -5 -8 -12 -4 -7 4 -8 3 -4
-4 4 -6 13 -9 21 -5 8 3 15 0 15 -6 0 -6 5 -10 12 -9 7 2 12 -3 13 -11 0 -16
25 -28 25 -12 0 6 -13 20 -30 32 -16 12 -26 27 -23 32 3 6 1 7 -4 4 -10 -6
-40 28 -41 46 0 15 -55 67 -69 67 -7 0 -13 6 -13 13 0 16 -52 67 -68 67 -7 0
-12 5 -12 12 0 17 -80 97 -94 94 -6 -2 -7 -1 -3 2 5 2 1 13 -9 23 -16 18 -18
18 -31 1 -13 -15 -13 -15 -4 4 8 17 6 25 -8 38 -10 9 -21 13 -26 9 -4 -5 -5
-3 -2 3 8 14 -146 167 -158 157 -4 -4 -5 -3 -2 3 3 6 -39 55 -94 110 l-99 99
0 3100 0 3100 1458 1458 1457 1457 1006 0 1006 0 26 -39 c57 -86 195 -108 274
-45 76 60 102 157 64 239 -44 96 -156 140 -251 99z"/>
<path d="M22854 37861 c-117 -28 -183 -153 -140 -264 20 -54 47 -80 110 -108
36 -16 60 -20 92 -15 l42 5 208 -204 c115 -112 213 -201 219 -198 5 4 7 2 2
-2 -9 -10 63 -86 75 -79 4 3 5 -3 1 -12 -5 -14 -2 -16 15 -12 13 4 20 2 16 -4
-8 -12 36 -59 48 -52 5 3 7 2 6 -3 -2 -4 5 -19 15 -33 9 -13 17 -20 17 -15 0
5 7 -1 16 -13 8 -12 20 -19 26 -16 6 4 8 3 5 -3 -8 -13 67 -86 77 -76 4 5 6 1
4 -7 -2 -9 4 -14 15 -13 10 0 16 -1 13 -4 -10 -10 56 -84 70 -79 8 3 11 -2 9
-14 -2 -11 -1 -19 3 -18 12 4 53 -23 48 -30 -2 -4 2 -18 11 -32 8 -14 12 -18
9 -9 -2 9 1 22 7 29 10 10 8 11 -8 6 -15 -6 -17 -4 -8 5 6 6 9 19 6 28 -4 14
-2 13 10 -1 20 -24 26 -22 23 7 -2 14 5 32 15 41 20 18 26 40 9 29 -12 -8 -13
5 -1 24 7 11 10 9 16 -8 3 -11 11 -21 16 -21 13 0 -4 30 -29 51 -13 11 -24 14
-33 8 -22 -13 -35 -11 -16 4 15 11 14 14 -7 39 -18 20 -26 24 -35 15 -9 -9
-11 -8 -6 5 6 14 -73 98 -341 370 -192 193 -364 366 -383 384 -32 30 -34 36
-35 101 -1 58 -6 76 -29 111 -42 64 -131 100 -203 83z"/>
<path d="M19912 37259 c-18 -6 -50 -27 -72 -49 -83 -83 -78 -207 13 -287 l37
-32 0 -1343 0 -1343 517 -517 c284 -284 521 -514 526 -511 6 3 7 2 4 -4 -7
-11 56 -76 66 -68 4 3 5 2 2 -2 -5 -7 124 -143 136 -143 4 0 9 10 11 21 2 12
12 27 23 33 11 6 22 12 24 13 2 1 5 20 6 43 1 22 5 44 9 48 4 4 7 2 6 -3 -5
-25 1 -43 18 -47 30 -8 32 -8 32 0 0 4 -6 7 -12 7 -7 1 -12 7 -10 14 1 7 -2
10 -7 7 -5 -3 -11 4 -14 15 -3 12 -10 18 -16 15 -5 -4 -12 -2 -16 4 -4 6 -12
7 -18 3 -7 -4 -6 0 2 10 12 15 11 17 -3 17 -9 0 -19 8 -23 18 -9 27 -55 72
-66 65 -6 -3 -7 -2 -4 4 8 13 -77 96 -88 86 -4 -5 -5 -3 -2 3 8 14 -36 57 -47
47 -4 -5 -6 -1 -4 7 2 8 -3 14 -10 12 -8 -1 -11 1 -8 6 3 4 -188 201 -425 438
l-429 429 0 1310 0 1310 33 27 c46 36 67 85 67 153 0 62 -14 97 -57 137 -54
52 -125 69 -201 47z"/>
<path d="M20442 37259 c-18 -6 -50 -27 -72 -49 -83 -83 -78 -207 13 -287 l37
-32 2 -1281 3 -1280 307 -306 c174 -174 311 -303 317 -300 7 5 8 1 4 -10 -5
-14 -3 -16 11 -11 11 4 15 3 11 -4 -4 -6 1 -19 11 -30 20 -22 43 -26 25 -5
-10 12 -9 14 5 12 10 -2 18 -10 20 -19 1 -10 -2 -15 -7 -11 -13 8 -11 -10 3
-24 14 -14 32 -16 24 -3 -4 5 2 8 11 7 10 -2 18 -9 18 -17 0 -8 7 -14 15 -14
10 0 14 -9 13 -27 -2 -23 2 -27 25 -25 18 1 27 -3 27 -13 0 -8 6 -15 14 -15 8
0 15 -8 17 -19 2 -14 -5 -11 -32 15 -19 18 -34 30 -34 26 0 -4 84 -90 187
-192 178 -175 189 -183 209 -170 28 18 37 9 19 -19 -14 -21 -12 -25 22 -57 20
-19 33 -29 29 -22 -3 6 0 14 6 16 10 4 10 6 1 6 -7 1 -10 8 -6 19 5 15 4 14
-9 -2 -10 -12 -17 -15 -22 -8 -3 6 -2 13 4 17 16 10 12 28 -5 21 -17 -6 -20 5
-5 20 8 8 6 15 -4 23 -10 8 -16 9 -21 1 -10 -17 -25 -11 -18 7 5 12 2 15 -10
10 -16 -6 -34 8 -20 16 5 2 2 2 -4 1 -19 -5 -16 13 3 24 15 8 15 10 -1 15 -9
4 -13 11 -10 17 4 6 -6 10 -24 10 -17 0 -31 5 -31 10 0 6 -5 10 -11 10 -5 0
-8 -4 -4 -9 3 -5 1 -12 -4 -16 -6 -3 -8 6 -5 22 4 25 3 26 -9 11 -10 -13 -17
-14 -25 -6 -8 8 -7 15 6 25 15 12 14 13 -11 9 -18 -3 -25 -1 -21 6 5 7 2 8 -6
3 -9 -6 -11 -4 -5 5 6 9 4 11 -5 5 -9 -6 -11 -4 -5 5 5 8 4 11 -3 6 -6 -3 -13
-2 -16 3 -10 16 22 6 44 -14 20 -18 20 -18 20 9 0 15 -7 34 -15 43 -8 8 -13
19 -10 24 9 14 25 11 25 -6 0 -22 26 -18 43 5 8 11 17 17 20 13 4 -3 7 1 7 10
0 14 -4 15 -25 5 -21 -9 -29 -9 -42 5 -14 13 -14 21 -5 42 10 21 9 25 -5 25
-9 0 -14 2 -11 5 6 6 -114 130 -543 561 l-299 301 0 1241 0 1241 44 44 c149
149 3 385 -202 326z"/>
<path d="M21147 37255 c-75 -26 -126 -100 -127 -183 0 -58 19 -100 69 -147
l41 -39 0 -1211 0 -1210 335 -332 c184 -183 340 -333 345 -333 6 0 13 -1 16
-2 4 -2 8 15 10 37 2 22 9 50 15 62 7 12 8 29 4 40 -13 28 -14 44 -4 37 5 -3
7 -9 4 -14 -3 -4 1 -13 8 -18 10 -8 13 -6 14 7 1 11 -109 128 -288 307 l-289
289 0 1176 0 1176 25 11 c14 7 39 33 55 59 101 159 -55 352 -233 288z"/>
<path d="M21767 37255 c-109 -38 -158 -165 -106 -273 12 -24 37 -53 55 -65
l34 -22 0 -1078 0 -1079 62 -64 c52 -54 63 -62 77 -51 14 10 14 10 4 -4 -11
-13 1 -29 81 -107 51 -51 96 -89 99 -85 4 3 7 0 7 -9 0 -8 11 -25 26 -38 21
-21 27 -22 34 -10 13 20 12 30 -1 30 -5 0 -8 -4 -4 -9 3 -5 2 -12 -3 -15 -4
-2 -8 4 -9 14 -1 14 5 18 28 18 17 -1 29 -6 29 -15 0 -19 24 -16 44 6 10 11
26 18 36 16 31 -6 32 24 3 55 -15 16 -31 26 -36 23 -6 -3 -7 -1 -4 4 8 13 -26
45 -43 41 -7 -2 -15 4 -17 12 -4 13 -3 13 6 0 6 -8 11 -10 11 -4 0 12 -32 44
-44 44 -4 0 -4 -5 0 -12 4 -7 3 -8 -5 -4 -6 4 -8 12 -5 18 8 13 -57 80 -73 74
-6 -3 -10 0 -7 7 2 7 -25 41 -61 77 l-65 64 0 1041 0 1040 34 22 c42 27 76 96
76 154 -1 139 -132 231 -263 184z"/>
<path d="M18725 36135 c-5 -2 -22 -6 -37 -9 -35 -8 -94 -59 -115 -100 -10 -19
-16 -54 -16 -91 l1 -60 -649 -650 -649 -650 0 -2030 0 -2030 539 -539 c361
-360 543 -536 552 -531 7 5 10 4 5 -3 -8 -14 22 -44 36 -36 7 4 8 2 4 -4 -9
-16 35 -55 48 -42 17 17 29 11 15 -7 -13 -16 -12 -17 4 -4 9 7 17 25 17 38 0
39 30 70 63 66 19 -3 26 0 22 7 -3 6 -11 8 -16 5 -5 -4 -9 -1 -9 5 0 6 -247
259 -550 563 l-550 552 0 1960 0 1960 624 623 623 623 37 -6 c112 -21 226 79
226 199 0 59 -53 141 -110 171 -27 13 -98 26 -115 20z"/>
<path d="M22691 35906 c-50 -28 -50 -33 -51 -458 0 -259 3 -398 10 -398 6 0
10 -7 10 -15 0 -8 6 -15 13 -15 16 0 47 31 47 47 0 12 56 63 70 63 5 0 10 15
10 33 0 24 3 28 10 17 6 -10 10 84 10 275 l0 290 207 1 c142 1 208 5 211 13 2
6 11 11 21 11 10 0 24 17 36 45 l20 45 120 1 c79 0 113 3 100 9 -11 5 -59 7
-107 3 -85 -5 -88 -5 -88 16 0 11 5 21 10 21 6 0 10 -4 10 -10 0 -5 18 -10 40
-10 23 0 40 5 40 11 0 8 17 10 55 6 33 -3 53 -2 50 4 -4 5 -175 9 -418 9 -323
-1 -417 -4 -436 -14z"/>
<path d="M13380 35888 c-34 -9 -102 -66 -121 -101 -15 -26 -22 -116 -11 -130
10 -12 12 -18 12 -37 0 -6 20 -31 45 -57 l45 -45 0 -1366 0 -1367 -274 -275
c-163 -163 -277 -285 -281 -300 -3 -14 -4 -1093 -3 -2397 l3 -2373 1029 -1029
c567 -567 1034 -1027 1039 -1024 6 3 7 2 4 -4 -7 -11 116 -136 126 -128 4 3 5
2 2 -2 -7 -10 46 -63 57 -57 5 3 7 0 6 -8 -2 -7 3 -12 10 -10 8 1 11 -1 8 -6
-3 -5 10 -23 28 -41 24 -24 36 -29 41 -20 5 7 4 10 -3 5 -6 -3 -13 -2 -17 3
-3 6 6 8 22 5 33 -6 43 -12 43 -25 0 -6 -4 -8 -9 -5 -5 4 -11 3 -14 -1 -2 -5
-2 -2 -1 5 2 6 -1 12 -6 12 -6 0 -10 -6 -10 -13 0 -16 62 -77 78 -77 7 0 17
-10 22 -22 8 -22 9 -22 9 5 1 20 5 26 14 21 8 -5 8 -2 -2 9 -14 18 -26 24 -17
8 3 -5 -5 -8 -18 -8 -18 0 -22 4 -18 23 2 13 10 29 18 35 8 6 14 18 14 25 0
13 20 19 44 15 5 -1 4 5 -4 13 -8 10 -8 16 -2 16 6 0 15 -7 20 -16 8 -14 10
-14 15 -1 7 19 -18 41 -35 31 -7 -4 -10 -4 -6 1 12 13 -12 47 -28 41 -9 -3
-12 -1 -9 5 9 14 -15 41 -32 35 -8 -4 -11 -1 -7 5 8 14 -36 60 -50 52 -6 -3
-8 -2 -3 2 10 11 -73 96 -86 88 -6 -3 -7 -2 -4 4 3 5 -466 481 -1044 1059
l-1049 1049 0 2315 0 2315 275 275 275 276 0 1421 c0 1064 3 1424 12 1429 7 5
8 2 3 -7 -4 -8 7 0 24 16 39 36 65 81 55 97 -4 7 -3 8 5 4 8 -5 11 7 10 43 -1
28 -6 48 -10 45 -5 -3 -6 2 -3 11 14 36 -96 142 -133 128 -7 -3 -13 0 -13 6 0
13 -42 13 -90 -1z"/>
<path d="M19153 35601 c-45 -11 -77 -34 -110 -77 -23 -31 -28 -49 -31 -108
l-4 -71 -516 -518 -517 -517 -3 -1713 c-1 -941 0 -1723 3 -1737 8 -30 534
-562 548 -553 6 3 7 2 4 -4 -3 -5 61 -75 142 -154 129 -126 152 -145 178 -143
20 1 30 -3 30 -12 0 -16 -13 -19 -22 -4 -8 13 -25 13 -25 -1 0 -5 5 -7 10 -4
6 3 10 0 10 -8 0 -27 27 -25 54 4 15 16 37 29 47 29 11 0 17 5 14 10 -7 11 8
14 19 3 11 -11 45 -13 51 -3 4 6 -1 7 -11 3 -12 -4 -15 -3 -10 5 4 7 2 12 -4
12 -6 0 -8 5 -4 12 4 7 3 8 -4 4 -7 -4 -12 -2 -12 4 0 6 -5 8 -11 4 -8 -4 -7
-9 2 -15 7 -4 11 -10 8 -13 -2 -3 -11 -1 -18 3 -10 6 -11 14 -3 27 8 14 0 28
-48 76 -32 32 -63 58 -69 58 -6 0 -15 10 -22 21 -18 35 -61 79 -76 79 -8 0
-12 4 -9 9 8 12 -31 44 -43 36 -7 -3 -8 0 -5 9 6 16 -28 40 -40 28 -4 -3 -5 0
-2 8 4 10 -82 102 -249 270 l-255 255 0 1659 0 1660 490 491 491 491 62 0 c78
-1 131 25 172 83 26 38 30 51 30 111 0 60 -4 74 -30 111 -47 67 -134 99 -212
80z"/>
<path d="M10015 35379 c-36 -10 -92 -57 -111 -94 -13 -25 -12 -27 4 -21 16 6
16 5 0 -7 -22 -17 -31 -68 -19 -100 8 -20 6 -27 -6 -31 -9 -4 -13 -13 -9 -22
3 -9 2 -12 -5 -9 -15 10 -83 -61 -73 -76 5 -8 3 -10 -5 -5 -17 11 -86 -58 -75
-75 5 -8 3 -10 -5 -5 -17 11 -86 -58 -75 -75 5 -8 3 -10 -5 -5 -17 11 -86 -58
-75 -75 5 -8 3 -10 -5 -5 -17 11 -86 -58 -75 -75 5 -8 3 -10 -5 -5 -17 11 -86
-58 -75 -75 5 -8 3 -10 -5 -5 -17 11 -86 -58 -75 -75 5 -8 3 -10 -5 -5 -17 11
-86 -58 -75 -75 5 -8 3 -10 -5 -5 -17 11 -86 -58 -75 -75 5 -8 3 -10 -5 -5
-17 11 -86 -58 -75 -75 5 -8 3 -10 -5 -5 -17 11 -86 -58 -75 -75 5 -8 3 -10
-6 -4 -8 5 -31 -12 -66 -49 l-54 -56 0 -713 0 -713 -645 -644 -645 -645 0
-1820 c0 -1443 3 -1824 13 -1834 10 -11 10 -13 0 -7 -12 7 -18 -5 -14 -27 1
-5 -3 -5 -9 -2 -15 9 -90 -73 -83 -91 3 -8 0 -14 -6 -14 -8 0 -11 -18 -10 -52
2 -55 17 -101 29 -93 4 3 7 -3 6 -13 0 -9 5 -16 12 -14 8 1 11 -2 8 -6 -6 -11
22 -39 44 -44 8 -2 18 -7 21 -12 4 -4 27 -10 52 -13 150 -17 261 135 198 273
-17 36 -55 77 -82 86 -6 2 -9 661 -9 1807 l0 1804 632 631 c348 347 631 637
630 644 -2 7 3 11 10 10 6 -2 13 2 13 7 1 6 5 17 9 25 3 9 5 327 4 709 l-3
693 482 481 c309 309 482 488 480 499 -1 9 3 17 8 17 6 0 9 -9 7 -20 -3 -18 1
-19 62 -15 71 5 90 11 80 28 -5 7 -2 8 5 4 14 -9 53 22 45 36 -3 4 -2 7 3 6 7
-3 15 7 12 15 -6 20 -5 36 2 31 5 -3 7 -10 4 -15 -4 -5 -2 -9 3 -9 16 0 21 27
9 40 -9 10 -9 11 1 6 18 -11 27 23 13 46 -7 12 -8 17 -2 13 17 -10 13 17 -6
38 -10 11 -12 17 -5 13 15 -9 15 -1 2 24 -6 10 -18 17 -28 15 -12 -2 -18 3
-19 18 0 12 1 16 4 10 3 -7 9 -13 15 -13 6 0 3 9 -7 20 -10 11 -20 18 -23 15
-3 -2 -10 2 -16 10 -6 8 -23 16 -38 19 -15 2 -32 7 -37 10 -5 4 -12 2 -16 -4
-4 -6 -13 -7 -23 -1 -9 4 -31 4 -47 0z"/>
<path d="M10204 34741 c-42 -11 -56 -20 -48 -33 4 -7 2 -8 -4 -4 -12 7 -54
-33 -46 -45 3 -5 -1 -6 -9 -3 -13 5 -29 -26 -32 -61 0 -5 -4 -16 -8 -22 -4 -7
-3 -21 2 -31 6 -11 8 -22 5 -25 -8 -8 26 -77 38 -77 5 0 6 -4 3 -10 -3 -5 5
-15 19 -21 14 -7 27 -18 30 -26 3 -8 6 -442 6 -965 0 -890 2 -952 18 -964 11
-9 13 -13 4 -14 -7 0 -10 -5 -7 -10 4 -6 11 -7 17 -4 6 4 8 3 5 -3 -8 -13 397
-416 408 -406 4 4 5 3 2 -4 -9 -14 21 -46 34 -37 5 3 8 1 7 -5 -2 -6 77 -91
175 -189 l177 -178 0 -2125 0 -2124 515 -515 514 -515 -6 -41 c-10 -74 38
-164 108 -200 35 -18 129 -18 172 0 95 39 140 177 89 271 -19 36 -76 82 -116
95 -21 7 -57 10 -80 7 l-42 -6 -487 487 -487 487 0 2120 0 2120 -245 243
c-135 134 -249 240 -255 237 -5 -3 -7 0 -5 8 7 18 -31 52 -59 52 -15 0 -20 6
-19 21 3 26 -31 59 -61 59 -15 0 -20 6 -19 21 3 26 -31 59 -61 59 -15 0 -20 6
-19 21 3 26 -31 59 -61 59 -15 0 -21 6 -21 22 0 12 -9 29 -20 38 -11 9 -14 14
-7 10 6 -3 12 -2 12 2 0 5 -6 15 -12 22 -10 11 -10 12 -1 7 19 -10 19 1790 0
1813 -9 12 -9 13 1 7 7 -4 12 -1 12 8 0 9 4 16 10 16 5 0 24 16 43 35 60 61
69 146 25 221 -15 26 -23 32 -33 24 -9 -8 -14 -6 -19 5 -3 9 -2 13 4 10 5 -3
7 0 5 7 -7 17 -44 40 -70 45 -11 1 -31 5 -45 7 -14 3 -39 1 -56 -3z"/>
<path d="M9531 34041 c-6 -10 -7 -22 -3 -26 4 -5 1 -5 -5 -1 -7 4 -13 2 -13
-4 0 -6 -5 -8 -11 -5 -6 5 -4 12 8 20 10 7 15 17 10 21 -4 4 -7 2 -7 -5 0 -7
-4 -9 -10 -6 -9 6 -90 -71 -88 -84 1 -3 -4 -19 -10 -34 -14 -33 -7 -98 14
-139 12 -24 21 -29 39 -25 14 2 22 0 19 -4 -3 -5 0 -9 5 -9 6 0 11 -5 11 -11
0 -8 -5 -8 -15 1 -22 18 -18 0 5 -25 19 -21 20 -36 20 -849 0 -706 3 -833 15
-863 11 -25 19 -33 30 -29 10 3 13 2 10 -5 -10 -15 61 -83 76 -73 8 5 10 3 5
-5 -11 -17 58 -86 75 -75 8 5 10 3 5 -5 -11 -17 58 -86 75 -75 8 5 10 3 5 -5
-11 -17 58 -86 75 -75 8 5 10 3 5 -5 -11 -17 58 -86 75 -75 8 5 10 3 5 -5 -11
-17 58 -86 75 -75 8 5 10 3 5 -5 -11 -17 58 -86 75 -75 8 4 10 3 5 -5 -8 -13
12 -44 24 -36 4 2 16 -5 26 -18 19 -21 19 -21 -1 -7 -19 14 -19 14 -6 -3 8
-10 20 -16 27 -13 7 3 11 0 9 -7 -3 -7 13 -30 35 -51 l40 -40 0 -372 0 -373
-29 -20 c-59 -43 -88 -145 -62 -223 21 -64 110 -128 179 -128 113 0 213 109
198 217 -7 50 -45 115 -81 139 l-25 16 0 405 0 406 -385 382 -385 383 0 831
c0 503 4 830 10 826 11 -7 51 35 44 46 -3 5 1 6 9 3 15 -5 31 22 21 37 -3 5 0
9 5 9 6 0 11 7 11 16 0 9 -5 12 -12 8 -7 -5 -8 -3 -2 7 11 19 13 80 3 100 -15
30 -82 99 -90 94 -4 -3 -10 -1 -14 5 -4 6 -11 8 -16 5 -5 -4 -9 -2 -9 3 0 5
-22 10 -50 11 -39 1 -51 -3 -59 -18z"/>
<path d="M19200 32870 c-124 -22 -191 -140 -151 -263 22 -67 113 -127 191
-127 40 1 103 34 137 73 l32 36 454 3 c365 2 453 0 450 -10 -3 -7 11 -28 32
-47 36 -35 63 -47 49 -22 -4 6 3 3 15 -8 25 -21 90 -27 126 -11 11 5 22 10 25
10 24 6 66 48 86 88 19 38 24 60 21 103 -5 62 -33 117 -49 94 -7 -10 -8 -9 -4
6 7 24 -48 66 -93 71 -16 2 -33 4 -38 6 -18 5 -93 -13 -93 -23 0 -5 -4 -8 -8
-5 -11 7 -76 -60 -69 -71 3 -4 -201 -7 -454 -5 -442 2 -459 3 -469 22 -28 53
-121 92 -190 80z"/>
<path d="M19139 32187 c-63 -33 -100 -97 -100 -170 0 -66 16 -101 70 -150 43
-39 89 -53 152 -44 49 6 116 49 131 82 l11 25 499 0 498 0 0 21 c0 12 10 34
23 49 12 15 30 41 39 58 l17 31 123 4 c68 1 -172 4 -533 5 l-657 2 -26 34
c-55 73 -164 96 -247 53z"/>
<path d="M41768 32054 c-5 -4 -8 -13 -8 -21 0 -7 -18 -29 -40 -49 -22 -20 -43
-48 -46 -61 -5 -19 -9 -21 -15 -11 -7 10 -9 9 -9 -4 0 -9 -9 -23 -20 -31 -20
-14 -20 -22 -18 -616 l3 -601 538 -538 537 -537 0 -340 0 -339 355 -356 355
-355 0 -550 0 -550 -35 -28 c-105 -84 -98 -247 13 -318 98 -62 232 -27 281 73
42 87 23 179 -50 242 l-39 33 0 594 0 593 -350 351 -349 350 -3 337 -3 338
-537 538 -538 537 -1 590 c-2 578 -6 745 -21 729z"/>
<path d="M8934 31909 c-3 -5 -10 -7 -15 -3 -13 8 -81 -35 -73 -47 3 -5 0 -8
-6 -7 -18 4 -50 -44 -56 -83 -10 -64 -9 -84 4 -81 10 2 10 -2 0 -20 -7 -13
-11 -26 -10 -30 1 -5 -2 -7 -6 -5 -5 1 -106 -95 -225 -214 l-217 -216 0 -2214
0 -2214 1223 -1222 1222 -1223 1018 0 1017 0 0 -738 c0 -460 4 -750 10 -772
14 -49 258 -294 277 -278 11 8 12 7 7 -7 -6 -14 -4 -16 6 -10 8 5 11 4 6 -3
-6 -11 76 -100 119 -128 20 -13 24 -13 36 3 13 16 12 17 -3 4 -12 -9 -18 -10
-18 -2 0 6 -3 10 -7 10 -25 -4 -23 5 7 36 24 24 34 45 35 68 1 18 5 39 9 45 5
8 2 11 -6 10 -7 -2 -12 3 -10 10 1 7 -9 17 -23 22 -14 5 -25 15 -25 23 0 19
-65 79 -75 70 -4 -5 -5 -3 -2 3 8 14 -26 47 -38 37 -4 -5 -5 -3 -2 3 3 6 -22
39 -57 73 -35 35 -65 58 -67 52 -2 -6 -3 349 -1 788 l2 799 -24 29 -24 28
-1049 3 -1048 2 -1167 1168 -1168 1167 0 2145 0 2145 198 198 197 197 55 1
c30 1 61 5 70 9 8 4 28 13 43 19 15 6 25 16 22 21 -3 6 0 10 9 10 15 0 62 87
52 97 -3 3 -1 14 4 24 8 13 6 20 -7 28 -14 8 -15 11 -3 11 12 0 11 3 -3 11
-14 8 -16 14 -7 25 17 19 -40 90 -89 110 -44 19 -109 26 -117 13z"/>
<path d="M19185 31562 c-77 -36 -121 -113 -111 -197 5 -50 37 -111 55 -107 6
1 10 -4 9 -10 -4 -19 81 -58 127 -58 54 1 114 30 150 74 l30 36 237 0 c152 0
238 4 238 10 0 6 10 10 23 11 21 1 21 1 -3 9 -16 5 17 9 95 11 l120 3 -95 6
c-52 3 -90 7 -85 8 6 1 4 6 -4 11 -12 7 -9 17 13 55 l27 47 -289 -3 c-160 -2
-288 0 -286 4 7 11 -46 68 -79 85 -48 24 -125 27 -172 5z"/>
<path d="M9560 31381 c-8 -5 -18 -8 -22 -5 -4 3 -17 0 -28 -6 -18 -10 -19 -14
-8 -28 12 -15 11 -16 -5 -3 -25 20 -43 1 -28 -30 l12 -24 -17 23 -17 23 -18
-28 c-11 -15 -19 -32 -19 -38 0 -5 4 -4 9 3 7 11 9 10 14 -3 4 -9 3 -14 -1
-11 -17 10 -33 -12 -38 -53 -3 -25 -1 -40 4 -37 5 3 8 -6 6 -20 -1 -17 2 -24
10 -21 7 3 19 1 27 -5 11 -8 10 -9 -3 -4 -12 3 -18 0 -18 -9 0 -8 5 -15 12
-15 6 0 9 -3 5 -6 -9 -9 44 -54 56 -47 6 4 7 1 2 -7 -6 -10 -4 -12 10 -6 14 5
16 4 7 -7 -14 -17 -17 -4044 -3 -4065 4 -8 449 -455 987 -994 l979 -980 -3
-51 c-4 -63 15 -111 60 -154 42 -40 76 -53 142 -53 104 0 186 85 186 193 0 64
-19 105 -68 149 -43 39 -105 56 -160 45 -26 -5 -96 62 -990 956 l-962 962 0
1996 c0 1790 2 1998 15 2009 13 11 13 15 3 22 -9 5 -5 7 12 6 16 -2 24 2 23
10 -2 6 2 12 8 12 5 0 8 4 5 8 -3 5 4 16 14 25 16 14 19 26 15 79 -4 66 -12
98 -25 98 -4 0 -10 9 -13 19 -11 44 -140 96 -177 72z"/>
<path d="M19160 30939 c-31 -12 -87 -66 -105 -99 -21 -41 -23 -126 -2 -114 10
6 10 4 0 -7 -16 -16 -17 -33 -1 -23 7 4 8 3 4 -5 -10 -16 20 -61 42 -61 13 0
14 -2 4 -9 -11 -7 -10 -10 3 -15 24 -9 27 -8 19 7 -4 6 2 3 14 -7 25 -21 31
-36 7 -16 -9 7 -15 8 -15 2 0 -16 30 -23 50 -12 15 8 18 7 14 -3 -4 -11 6 -14
40 -14 26 0 46 3 47 6 0 3 2 20 2 38 1 17 5 35 9 38 4 4 5 -5 2 -19 -2 -15 0
-35 5 -44 7 -11 11 -12 11 -4 0 7 4 11 9 8 4 -3 22 7 40 23 30 27 43 49 19 35
-6 -4 -8 -3 -4 4 3 5 1 12 -6 14 -7 3 -2 7 10 10 12 4 20 2 16 -3 -3 -5 2 -6
10 -3 9 3 16 10 16 15 0 5 8 4 18 -2 14 -9 24 -9 38 -1 17 10 17 11 -8 12 -15
0 -29 3 -31 8 -3 4 45 6 106 4 102 -2 110 -1 93 13 -11 8 -27 13 -36 10 -23
-7 -119 -9 -126 -2 -8 7 25 57 55 84 14 12 36 24 50 26 15 3 -16 5 -67 4 -78
0 -90 -2 -81 -14 9 -11 9 -12 -3 -8 -9 3 -21 18 -27 32 -6 14 -17 23 -25 20
-7 -3 -13 1 -13 9 0 7 5 11 11 8 6 -3 -2 6 -18 20 -17 14 -34 22 -39 19 -5 -3
-3 -10 4 -15 11 -8 11 -9 -1 -5 -8 2 -14 11 -12 19 4 27 -95 38 -148 17z"/>
<path d="M40721 30828 c-1 -59 3 -98 9 -98 6 0 9 -33 8 -82 l-2 -83 -6 70 c-4
39 -7 58 -8 44 -1 -14 -11 -34 -22 -44 -11 -10 -20 -23 -20 -29 0 -7 -9 -18
-20 -26 -11 -8 -20 -20 -20 -27 0 -7 -4 -13 -10 -13 -5 0 -10 -7 -10 -15 0 -8
-4 -15 -10 -15 -5 0 -10 -22 -10 -50 0 -27 -4 -50 -10 -50 -7 0 -10 -582 -10
-1727 l0 -1728 765 -765 765 -765 -10 -35 c-31 -108 49 -227 160 -238 78 -7
116 5 164 51 129 124 44 336 -134 337 l-45 0 -742 743 -743 742 -1 1815 c0
1089 -5 1860 -11 1928 -13 155 -27 184 -27 60z"/>
<path d="M39888 29548 c-16 -17 -28 -34 -28 -39 0 -5 -4 -9 -10 -9 -5 0 -10
-9 -10 -19 0 -10 -22 -41 -50 -68 l-50 -48 0 -2109 0 -2109 233 -235 c127
-130 472 -474 765 -766 l532 -531 0 -2155 0 -2155 -1220 -1220 -1220 -1220 0
-712 0 -712 -29 -15 c-36 -19 -81 -106 -81 -155 0 -20 9 -54 19 -77 20 -44 88
-107 108 -99 7 2 13 0 13 -5 0 -13 89 -13 128 1 17 6 33 17 36 25 3 9 10 13
16 9 5 -3 22 13 37 36 21 31 28 57 31 105 3 43 1 64 -7 64 -6 0 -10 6 -8 13 1
6 -3 11 -10 10 -7 -2 -10 3 -7 11 3 8 -11 30 -30 50 l-36 35 0 673 0 673 1215
1215 1215 1215 0 2235 0 2235 -760 760 -760 760 -2 2181 -3 2182 -27 -30z"/>
<path d="M41238 29480 c-58 -17 -100 -53 -124 -104 -30 -65 -30 -110 1 -172
39 -77 121 -120 205 -108 35 5 39 2 713 -673 l677 -678 0 -1775 0 -1775 -325
-325 -325 -325 0 -1646 0 -1647 -34 -26 c-92 -69 -101 -209 -19 -288 45 -44
79 -58 138 -58 106 0 181 71 192 182 6 60 -24 127 -73 164 l-34 26 0 1606 0
1607 330 330 330 331 0 1844 0 1845 -705 705 -705 705 0 58 c0 73 -18 115 -64
154 -56 46 -118 61 -178 43z"/>
<path d="M11655 29426 c-64 -29 -115 -110 -115 -183 1 -53 31 -115 74 -149
l36 -29 0 -689 0 -690 288 -289 c158 -158 711 -712 1230 -1230 l942 -941 0
-754 c0 -455 4 -751 9 -748 5 4 12 -7 16 -22 6 -28 69 -97 89 -97 6 0 11 -5
11 -11 0 -16 53 -68 72 -70 8 -1 12 1 8 4 -4 4 -12 7 -18 7 -7 0 -12 9 -12 20
0 12 -7 20 -17 20 -10 0 -17 5 -15 10 1 6 6 9 12 7 5 -2 6 0 2 5 -5 4 -14 8
-20 8 -7 0 -12 5 -12 12 0 6 -4 15 -8 20 -5 4 -7 3 -5 -2 2 -6 -1 -11 -7 -12
-5 -2 -10 5 -10 15 0 9 -8 17 -17 17 -10 0 -17 5 -15 10 1 6 5 9 9 8 4 -2 5 3
2 11 -3 7 13 29 35 49 21 19 39 37 38 39 -1 2 1 1 5 -2 10 -8 -2 -51 -13 -44
-5 3 -6 -2 -3 -10 6 -15 -28 -40 -40 -29 -3 3 -6 2 -6 -3 0 -13 21 -34 34 -34
5 0 6 3 3 6 -3 4 -2 15 4 25 7 14 17 18 37 14 25 -5 25 -5 5 4 -30 14 -29 18
6 18 20 0 28 -5 27 -16 -1 -10 6 -15 17 -14 12 1 17 -4 13 -14 -3 -8 -6 -19
-6 -24 0 -6 -4 -8 -8 -5 -4 2 -8 -4 -8 -14 0 -18 1 -18 17 -2 9 9 14 23 11 31
-4 10 2 9 20 -5 14 -10 24 -23 21 -28 -3 -5 0 -7 7 -4 8 2 16 10 18 18 3 7 0
10 -5 7 -11 -7 -65 41 -59 52 2 3 -2 12 -10 19 -8 7 -14 9 -14 5 0 -4 -5 -2
-12 5 -15 15 -32 16 -23 2 3 -5 2 -10 -4 -10 -5 0 -13 5 -16 10 -3 6 -1 10 5
10 7 0 10 6 7 13 -19 46 -20 50 -10 44 7 -4 11 230 12 733 2 642 0 742 -13
767 -8 15 -562 575 -1230 1243 l-1216 1215 0 656 0 655 36 35 c55 53 67 82 62
159 -4 79 -34 127 -98 160 -46 23 -130 26 -175 6z"/>
<path d="M10250 29332 c-75 -37 -123 -142 -101 -220 14 -48 47 -96 76 -112
l25 -13 0 -861 0 -861 978 -977 977 -978 397 0 397 0 241 -240 240 -239 0
-826 c0 -653 3 -825 13 -825 9 0 8 -3 -2 -9 -10 -7 5 -27 61 -85 41 -42 80
-76 87 -76 7 0 9 5 6 10 -3 6 -12 10 -19 10 -8 0 -20 8 -27 18 -12 15 -12 16
1 6 8 -6 23 -10 32 -9 10 2 16 0 15 -5 -1 -4 3 -8 8 -8 6 0 9 4 7 10 -1 5 2 7
7 3 6 -3 28 10 49 29 l39 35 22 -27 c21 -26 21 -26 -1 8 -29 44 -55 70 -62 62
-3 -3 -6 3 -6 12 0 13 -5 16 -17 12 -10 -4 -14 -4 -11 0 13 13 -13 46 -30 39
-14 -5 -15 -4 -4 6 16 17 18 1632 2 1676 -12 32 -531 557 -572 579 -22 11 -97
14 -415 14 l-388 0 -923 923 -922 922 0 821 0 821 44 44 c56 56 73 110 56 181
-22 92 -96 148 -192 148 -29 -1 -69 -9 -88 -18z"/>
<path d="M39318 28900 l-2 -155 -6 145 c-6 162 -22 145 -19 -22 1 -85 -5 -125
-20 -138 -10 -9 -31 -44 -37 -62 -4 -10 -12 -18 -19 -18 -7 0 -15 -10 -19 -22
-5 -19 -8 -21 -16 -8 -6 10 -10 -667 -10 -1980 l0 -1994 660 -661 660 -660 0
-1300 0 -1300 -1923 -1923 -1922 -1922 -3150 0 c-2037 0 -3145 -4 -3135 -10
12 -8 8 -10 -15 -11 -29 -1 -30 -1 -5 -9 17 -5 -10 -9 -80 -11 l-105 -3 100
-6 100 -6 -80 -4 -80 -4 63 -3 c68 -4 84 -23 37 -45 -33 -15 -32 -38 3 -40 18
-1 12 -3 -18 -8 -25 -4 1417 -8 3205 -8 l3250 -2 1953 1953 c1074 1073 1960
1964 1968 1979 12 23 14 226 14 1395 l0 1368 -665 665 -665 665 0 2145 c0
1368 -4 2150 -10 2160 -7 10 -10 -36 -12 -140z"/>
<path d="M41205 28694 c-182 -94 -131 -356 72 -372 l58 -4 383 -381 383 -382
-6 -36 c-13 -78 40 -176 112 -205 42 -18 124 -18 166 0 44 18 94 77 107 126
36 133 -71 261 -204 247 l-53 -5 -374 374 -374 374 4 69 c4 96 -26 154 -101
192 -46 23 -131 25 -173 3z"/>
<path d="M41205 27266 c-41 -18 -92 -77 -106 -125 -37 -124 62 -251 197 -251
l49 0 375 -375 375 -375 0 -63 c1 -78 26 -131 84 -172 37 -26 51 -30 110 -30
57 0 74 4 109 28 99 65 117 205 39 294 -41 46 -82 63 -154 63 l-58 0 -373 373
-373 373 -2 81 c-2 74 -5 84 -32 119 -17 20 -46 45 -65 55 -41 22 -130 25
-175 5z"/>
<path d="M37923 27213 c0 -8 6 -9 18 -2 11 6 20 5 24 -1 3 -5 -1 -10 -9 -10
-9 0 -16 -9 -16 -21 0 -11 -4 -18 -9 -14 -6 3 -9 -3 -8 -13 1 -13 10 -18 31
-20 25 -1 27 1 11 7 -19 8 -18 9 5 12 14 3 24 10 22 17 -1 8 2 11 8 7 7 -4 7
-12 0 -25 -7 -13 -7 -21 0 -25 6 -4 8 -11 5 -16 -3 -5 1 -6 9 -3 9 3 22 -1 31
-10 14 -14 13 -15 -15 -11 -32 4 -37 -3 -17 -24 10 -11 10 -13 0 -7 -7 4 -13
3 -13 -2 0 -10 -59 -10 -76 1 -6 3 -10 20 -9 37 2 32 -8 46 -25 35 -6 -4 -4
-12 5 -21 22 -23 18 -32 -12 -26 l-28 5 27 -22 c15 -12 37 -34 49 -49 l22 -27
-5 28 c-4 22 -2 27 9 23 8 -3 17 -6 19 -6 2 0 4 -5 4 -11 0 -5 -4 -8 -9 -5 -4
3 -8 -3 -7 -14 1 -25 254 -282 269 -273 6 3 7 1 3 -5 -4 -7 94 -113 238 -259
l245 -248 1 -511 0 -511 -23 -12 c-13 -7 -36 -31 -50 -54 -35 -53 -37 -138 -7
-197 44 -86 170 -126 256 -82 129 66 152 216 48 317 l-44 43 0 535 0 535 -36
44 c-20 23 -41 46 -46 49 -6 4 -149 145 -318 314 -181 181 -313 305 -319 301
-6 -4 -8 -13 -4 -19 4 -8 1 -7 -9 1 -16 13 -22 55 -6 46 4 -3 4 -12 1 -22 -5
-14 -4 -15 8 -4 11 10 7 19 -24 49 -30 31 -39 35 -49 24 -11 -12 -10 -13 4 -8
10 3 20 1 24 -6 4 -7 4 -9 -1 -5 -4 4 -17 2 -29 -4 -11 -6 -18 -7 -14 -3 4 5
3 14 -4 22 -8 10 -8 17 1 26 10 9 11 8 6 -8 -6 -16 -5 -17 4 -5 8 12 -4 29
-60 85 -65 66 -106 88 -106 58z"/>
<path d="M37611 26564 c1 -5 0 -11 -1 -14 -7 -19 -7 -39 1 -34 5 3 9 1 9 -4 0
-6 -7 -13 -16 -16 -8 -3 -12 -11 -8 -17 4 -7 -1 -7 -16 1 -22 12 -22 12 -7
-17 9 -15 18 -36 21 -45 2 -9 15 -18 27 -20 12 -2 25 -10 27 -18 5 -13 3 -13
-11 -1 -9 7 -23 11 -32 8 -16 -7 -29 9 -30 37 0 11 -6 21 -13 23 -8 3 -10 -1
-5 -14 6 -16 5 -16 -10 -4 -10 8 -20 11 -23 8 -3 -3 154 -167 350 -364 l356
-358 -1 -435 0 -435 -32 -20 c-97 -61 -100 -236 -6 -308 99 -75 239 -46 296
62 43 82 27 168 -46 239 l-41 40 0 468 0 468 -297 298 c-244 243 -302 297
-321 293 -12 -2 -20 0 -17 6 4 5 11 7 16 4 25 -16 3 14 -41 56 -36 34 -56 46
-70 42 -16 -4 -19 -2 -14 11 3 9 11 13 18 9 6 -4 5 1 -3 10 -12 16 -37 14 -27
-2 3 -4 0 -13 -5 -21 -7 -11 -8 -6 -4 16 3 21 0 36 -11 45 -8 7 -14 8 -13 3z"/>
<path d="M43452 26129 c-122 -61 -145 -217 -46 -316 l44 -44 0 -857 0 -857
-380 -380 -380 -381 0 -1850 0 -1851 -780 -779 c-430 -428 -787 -791 -796
-806 -12 -23 -14 -87 -14 -383 1 -195 -2 -360 -5 -365 -6 -10 1 -14 18 -11 5
1 6 -3 2 -9 -5 -7 -11 -8 -19 -1 -22 18 -96 -64 -80 -90 5 -8 3 -9 -6 -4 -18
11 -9 -130 9 -147 11 -11 12 -10 6 1 -5 9 -4 12 3 7 6 -4 9 -12 6 -19 -7 -19
46 -64 95 -82 47 -16 95 -20 87 -6 -3 4 5 7 17 6 24 -3 107 41 107 56 0 6 10
23 21 38 12 16 18 34 15 40 -4 6 -2 11 4 11 16 0 7 88 -13 127 -19 36 -43 57
-56 48 -6 -3 -8 0 -5 8 3 8 -2 17 -10 20 -14 6 -16 48 -16 345 l0 338 54 53
c30 30 54 57 53 60 -1 3 3 7 8 9 20 6 84 76 78 85 -3 6 -2 7 4 4 9 -6 397 374
394 387 0 3 1 5 3 4 10 -6 75 66 69 75 -3 6 -2 7 4 4 10 -7 82 61 83 78 0 6 4
10 10 10 18 0 802 789 816 822 12 27 14 319 14 1865 l0 1833 380 380 380 381
0 892 0 892 44 43 c162 156 -20 416 -222 316z"/>
<path d="M37192 25983 c-9 -4 -4 -14 19 -32 19 -16 30 -33 27 -42 -4 -9 -9 -5
-17 15 -8 19 -16 26 -27 22 -9 -3 -18 -6 -20 -6 -2 0 -4 -8 -4 -19 0 -24 -22
-42 -48 -38 -23 3 -55 27 -47 35 2 3 10 0 18 -6 10 -8 16 -6 27 11 12 20 11
21 -2 9 -9 -7 -22 -10 -30 -7 -8 3 -20 -1 -27 -9 -18 -21 23 -63 45 -45 9 7
14 8 14 1 0 -6 -5 -14 -10 -17 -12 -7 -4 -25 11 -25 6 0 7 6 3 13 -5 9 -4 9 6
0 11 -10 17 -10 29 0 14 10 14 10 3 -4 -10 -13 -10 -18 1 -28 8 -6 18 -7 22
-3 5 4 5 2 2 -5 -4 -6 -1 -14 5 -16 8 -3 9 -6 2 -6 -6 -1 -23 11 -38 25 -14
15 -26 22 -26 17 0 -16 56 -64 65 -56 4 5 6 3 2 -2 -3 -6 116 -132 264 -280
l269 -270 0 -398 0 -398 -36 -36 c-62 -62 -81 -142 -50 -214 54 -124 198 -163
305 -82 94 72 93 235 -3 308 l-36 27 0 422 c0 341 -3 426 -14 448 -8 14 -85
95 -172 180 -86 84 -222 217 -301 296 -80 78 -149 142 -154 142 -5 0 -9 7 -9
16 0 8 -3 13 -7 11 -10 -4 -53 40 -45 47 6 7 2 7 -16 -1z"/>
<path d="M8772 25610 c-135 -32 -195 -190 -116 -302 39 -56 94 -83 167 -83
l57 0 818 -818 817 -817 685 0 685 0 223 -220 222 -220 0 -351 0 -351 82 -84
c47 -48 88 -82 96 -79 7 3 10 0 7 -6 -10 -15 61 -83 76 -73 8 5 10 3 5 -5 -11
-17 58 -86 75 -75 8 4 10 3 5 -5 -10 -15 138 -166 153 -156 6 3 9 0 5 -8 -5
-14 12 -35 31 -36 6 -1 10 -5 10 -10 0 -13 55 -66 69 -66 6 0 11 -5 11 -11 0
-15 54 -69 69 -69 6 0 11 -5 11 -11 0 -6 16 -27 35 -45 19 -19 29 -27 22 -18
-7 9 -11 23 -10 30 2 8 -5 14 -14 14 -10 0 -17 5 -15 10 1 6 6 9 12 7 5 -2 6
0 2 5 -5 4 -14 8 -20 8 -7 0 -12 5 -12 12 0 6 -4 15 -8 20 -5 4 -7 4 -5 -2 2
-5 -2 -11 -7 -12 -6 -2 -10 5 -10 15 0 9 -8 17 -17 17 -10 0 -17 5 -15 10 1 6
6 9 12 7 5 -2 6 0 2 5 -5 4 -14 8 -20 8 -7 0 -12 5 -12 12 0 6 -4 15 -8 20 -5
4 -7 3 -5 -2 2 -6 -1 -10 -7 -10 -5 0 -9 4 -7 10 2 5 -5 15 -15 23 -10 7 -17
16 -15 20 1 4 -4 7 -10 7 -7 1 -12 7 -10 15 3 11 0 11 -12 1 -11 -9 -16 -9
-22 0 -4 7 -3 9 3 6 6 -4 28 9 49 29 23 20 46 33 57 30 9 -2 17 -1 17 4 0 8
-42 22 -69 24 -8 1 -15 7 -17 14 -1 7 0 8 3 2 7 -14 23 -12 19 3 -1 6 -1 9 2
4 2 -4 19 -14 38 -22 19 -8 39 -25 46 -39 6 -15 14 -26 18 -26 3 0 15 -6 25
-14 17 -12 15 -13 -23 -12 -38 1 -41 3 -36 23 4 13 2 23 -3 23 -5 0 -9 -12 -8
-27 0 -24 4 -28 33 -29 18 -1 36 -4 39 -7 3 -3 11 0 18 6 17 16 0 48 -21 40
-8 -3 -14 -2 -12 3 2 5 -2 10 -7 12 -6 2 -16 14 -23 28 -7 13 -17 24 -22 24
-6 0 -10 7 -10 16 0 11 -5 14 -17 10 -10 -4 -14 -4 -10 0 4 4 -1 13 -11 21
-10 9 -11 11 -2 7 8 -4 1 7 -17 25 -17 18 -36 30 -42 27 -6 -4 -9 -1 -6 6 3 7
-70 88 -170 187 l-175 174 0 344 c0 279 -3 349 -14 371 -8 15 -129 141 -268
280 l-254 252 -684 0 -685 0 -798 798 -797 797 0 58 c0 136 -111 228 -238 197z"/>
<path d="M36645 25532 c4 -4 12 -7 18 -7 7 0 12 -9 12 -20 0 -12 7 -20 17 -20
10 0 17 -5 17 -10 -1 -6 -6 -8 -12 -7 -7 2 -8 0 -4 -5 5 -4 14 -8 20 -8 7 0
12 -5 12 -12 0 -6 4 -15 8 -20 5 -4 7 -3 5 2 -1 6 1 10 7 10 5 0 8 -6 7 -14
-2 -7 1 -11 6 -7 5 3 9 -1 9 -9 0 -17 -13 -20 -22 -5 -3 6 -10 10 -16 10 -13
0 -11 -27 3 -36 7 -5 8 -3 3 6 -5 8 -4 11 3 7 14 -10 3 -47 -15 -47 -8 0 -11
-4 -8 -10 11 -17 -7 -11 -21 8 -10 12 -16 14 -22 5 -9 -15 -27 -4 -27 17 0 8
-8 14 -18 13 -12 -1 -17 4 -13 14 3 8 6 19 6 24 0 6 4 8 8 5 4 -2 8 4 8 14 0
18 -1 18 -17 2 -9 -9 -14 -23 -11 -31 4 -10 -2 -9 -20 5 -14 10 -24 23 -21 28
3 5 0 7 -7 4 -8 -2 -16 -10 -18 -18 -3 -7 0 -10 5 -7 11 7 65 -41 59 -52 -4
-6 13 -26 24 -28 26 -7 40 -18 37 -28 -3 -6 1 -12 9 -12 17 0 18 9 2 25 -8 8
-8 12 -1 12 15 0 26 -31 14 -43 -6 -6 -4 -15 6 -25 19 -19 53 -26 53 -11 0 5
4 7 10 4 13 -8 -11 -35 -25 -27 -5 3 21 -27 59 -66 38 -39 74 -68 79 -65 6 3
7 2 4 -4 -8 -13 37 -56 48 -46 4 5 5 3 2 -3 -8 -14 66 -87 78 -77 4 5 5 3 2
-3 -8 -14 17 -37 28 -26 5 4 5 2 2 -4 -3 -6 39 -55 94 -110 l99 -99 0 -317 0
-318 -694 0 c-546 0 -695 -3 -699 -12 -4 -10 -6 -10 -6 0 -1 6 -14 12 -30 12
-25 0 -31 -6 -41 -36 -7 -20 -27 -53 -45 -73 -17 -20 -35 -44 -38 -53 -6 -17
38 -18 828 -18 590 0 841 3 858 11 14 6 30 22 36 36 7 16 11 151 11 419 0 325
-3 400 -14 422 -24 45 -293 305 -307 296 -8 -5 -10 -3 -5 5 5 8 -6 26 -27 48
-22 21 -40 32 -48 27 -8 -5 -10 -3 -5 5 5 8 -6 26 -27 48 -22 21 -40 32 -48
27 -8 -5 -10 -3 -5 5 5 8 -6 26 -27 48 -22 21 -40 32 -48 27 -8 -5 -10 -3 -5
5 9 13 -88 116 -108 116 -6 0 -11 5 -11 11 0 16 -53 68 -72 70 -8 1 -12 -1 -8
-4z"/>
<path d="M38305 24178 c-85 -30 -139 -109 -134 -199 l3 -50 -1465 -1465 -1464
-1464 -781 0 c-429 0 -836 -3 -902 -7 -118 -6 -122 -7 -122 -29 0 -12 -11 -31
-25 -42 -14 -11 -25 -23 -25 -26 0 -12 38 -6 43 7 3 7 6 5 6 -5 1 -16 -11 -18
-119 -18 -66 0 -120 -4 -120 -9 0 -5 68 -8 158 -6 86 1 122 0 80 -2 -62 -3
-78 -7 -78 -19 0 -13 -14 -15 -84 -12 -46 2 -82 0 -79 -4 7 -13 2087 -10 2120
2 16 6 666 649 1506 1488 l1477 1477 58 1 c150 1 244 142 184 276 -39 89 -148
137 -237 106z"/>
<path d="M36550 23557 c-19 -6 -53 -30 -76 -54 l-41 -42 -532 -3 c-459 -3
-533 -5 -541 -18 -7 -10 -10 -11 -10 -2 0 7 -12 12 -29 12 -24 0 -31 -6 -45
-42 -23 -60 -77 -116 -118 -121 -18 -2 -10 -2 17 0 28 2 57 3 65 2 8 -1 280
-3 605 -5 l590 -4 40 -39 c54 -52 77 -63 139 -63 59 -1 98 16 144 63 137 141
-19 379 -208 316z"/>
<path d="M39845 23366 c-22 -8 -56 -33 -76 -55 l-37 -41 -561 0 c-469 0 -566
-2 -589 -14 -15 -8 -715 -704 -1557 -1545 l-1530 -1531 -1332 0 c-1062 0
-1331 -3 -1328 -12 6 -16 -30 -78 -45 -78 -5 0 -10 -9 -10 -20 0 -11 5 -20 10
-20 6 0 10 -9 10 -20 0 -20 7 -20 1392 -20 l1393 0 1540 1540 1540 1540 532 0
532 0 44 -43 c71 -72 154 -82 244 -31 55 32 84 80 90 152 4 47 1 65 -19 102
-48 88 -151 129 -243 96z"/>
<path d="M11275 23236 c-64 -29 -115 -110 -115 -183 1 -53 31 -115 74 -149
l36 -29 0 -449 0 -450 162 -162 c89 -90 166 -160 171 -157 6 3 7 2 4 -4 -6
-10 109 -130 121 -125 4 1 7 -4 7 -10 1 -7 7 -12 14 -10 7 1 10 -1 7 -6 -5 -9
32 -50 47 -51 4 -1 7 -4 8 -8 2 -16 22 -33 32 -26 5 3 7 2 4 -4 -6 -10 351
-373 368 -373 6 0 10 -6 10 -12 0 -7 10 -12 23 -12 24 1 30 -11 10 -20 -7 -3
-2 -3 12 1 22 5 23 4 11 -11 -7 -9 -11 -17 -7 -17 3 -1 12 -2 19 -3 6 -1 11
-7 10 -13 -1 -6 7 -19 18 -29 15 -14 22 -15 32 -5 9 10 9 11 -5 6 -18 -7 -19
9 -3 35 7 12 6 13 -6 4 -20 -17 -43 7 -26 26 9 10 9 11 0 6 -7 -4 -13 -2 -13
3 0 6 6 11 13 11 8 0 7 4 -3 10 -11 7 -11 10 -2 10 7 0 10 5 6 11 -5 8 -9 8
-14 -1 -6 -9 -9 -9 -13 1 -4 10 -6 10 -6 2 -1 -7 -6 -13 -12 -13 -5 0 -8 4 -5
9 4 5 -2 8 -11 6 -27 -4 -35 5 -21 23 10 12 10 14 1 8 -7 -4 -13 -2 -13 3 0 6
5 11 12 11 6 0 3 6 -8 14 -10 8 -16 18 -11 22 4 4 7 2 7 -4 0 -7 5 -12 11 -12
5 0 7 5 4 10 -3 6 -1 10 5 10 6 0 8 5 4 13 -5 7 0 6 11 -3 17 -14 18 -13 12 2
-8 23 8 32 26 14 11 -11 17 -12 26 -3 8 8 4 18 -16 39 -15 15 -33 28 -40 28
-7 0 -13 6 -13 13 0 16 -84 99 -93 92 -4 -3 -5 -2 -2 2 3 4 -11 24 -31 44 -31
32 -40 36 -58 28 -19 -9 -19 -9 -4 4 15 12 -15 45 -298 328 l-314 314 0 417 0
418 39 36 c48 43 65 88 59 160 -6 69 -42 125 -100 153 -51 24 -127 27 -173 7z"/>
<path d="M35999 22980 c-52 -9 -100 -40 -128 -83 l-24 -37 -471 -1 c-259 -1
-532 -5 -606 -8 l-135 -8 115 -2 c63 -2 106 -6 95 -8 -11 -3 -22 -9 -25 -13
-3 -4 -29 -4 -59 0 -30 4 -68 3 -85 -1 l-31 -7 38 -1 c28 -1 37 -5 37 -18 1
-17 1 -17 11 0 6 10 22 17 39 17 24 0 30 -4 30 -21 0 -11 -5 -29 -10 -40 -10
-17 -23 -19 -113 -20 -61 0 -94 -4 -82 -8 11 -5 47 -6 80 -4 33 3 71 0 85 -5
20 -8 0 -11 -90 -13 l-115 -2 140 -8 c77 -3 371 -7 654 -8 l514 -1 38 -34 c62
-57 134 -69 207 -36 51 23 86 61 108 117 51 132 -74 278 -217 253z"/>
<path d="M35332 22353 c-19 -9 -46 -31 -60 -50 l-27 -33 -422 0 -423 0 0 -23
c0 -23 -49 -77 -70 -77 -5 0 -10 -9 -10 -21 0 -11 -5 -29 -10 -40 -11 -19 -2
-19 460 -19 l471 0 26 -30 c13 -17 30 -27 35 -23 7 3 8 1 4 -5 -3 -6 3 -16 14
-22 11 -6 20 -7 20 -3 0 4 4 2 9 -5 4 -8 27 -16 50 -19 119 -16 236 107 216
228 -9 51 -56 114 -104 139 -49 25 -132 26 -179 3z"/>
<path d="M39845 22336 c-22 -8 -56 -33 -76 -55 l-37 -41 -541 0 -541 0 -37
-34 c-21 -19 -668 -665 -1438 -1435 l-1400 -1401 -1767 0 c-973 0 -1768 -4
-1768 -8 0 -12 -55 -72 -66 -72 -8 -1 -54 -81 -54 -95 0 -3 838 -5 1862 -5
l1863 0 1435 1435 1435 1435 507 0 507 0 45 -44 c57 -57 109 -73 184 -56 135
30 196 190 116 302 -51 73 -147 103 -229 74z"/>
<path d="M34800 21779 c-41 -8 -93 -33 -110 -54 -11 -13 -64 -15 -347 -15
-363 0 -346 3 -377 -59 -9 -17 -24 -35 -32 -38 -7 -3 -14 -11 -14 -18 0 -8
-11 -22 -25 -33 -14 -11 -25 -23 -25 -26 0 -12 38 -6 43 7 4 10 6 10 6 0 1
-10 81 -13 366 -13 316 0 365 -2 365 -15 0 -8 19 -35 43 -59 41 -43 92 -66
147 -66 67 1 156 72 180 145 43 129 -84 270 -220 244z"/>
<path d="M39845 21266 c-23 -9 -57 -34 -81 -60 l-40 -46 -508 0 c-421 0 -512
-2 -534 -14 -15 -8 -607 -596 -1317 -1305 l-1290 -1291 -2200 -1 c-1210 -1
-2186 -5 -2170 -9 23 -6 15 -8 -37 -9 -61 -1 -68 -3 -68 -21 0 -11 -4 -20 -10
-20 -5 0 -10 -9 -10 -20 0 -11 5 -20 10 -20 6 0 10 -9 10 -20 0 -11 -4 -20
-10 -20 -5 0 -10 7 -10 15 0 21 -24 19 -45 -5 -18 -20 -17 -20 23 -20 78 0 43
-19 -40 -23 -46 -1 979 -4 2277 -5 l2360 -2 1305 1305 1305 1305 486 0 486 0
41 -39 c131 -125 342 -28 330 152 -9 131 -140 217 -263 173z"/>
<path d="M38930 20428 c-24 -13 -58 -40 -74 -61 -27 -34 -31 -47 -33 -110 l-2
-70 -1228 -1229 -1228 -1228 -2690 -3 c-2304 -2 -2702 -5 -2775 -17 l-85 -15
69 -3 c49 -2 72 1 77 10 17 26 8 -6 -13 -48 -12 -24 -28 -44 -35 -44 -9 0 -13
-10 -11 -30 2 -24 7 -30 26 -30 15 0 21 4 16 12 -5 8 -2 9 12 2 11 -5 1114
-10 2749 -12 l2730 -2 1255 1255 1255 1255 66 0 c84 0 145 35 178 102 82 171
-93 350 -259 266z"/>
<path d="M40745 20123 c-11 -2 -30 -6 -43 -9 -36 -7 -99 -72 -118 -119 -11
-31 -15 -58 -10 -87 l7 -42 -1738 -1738 -1738 -1738 -2688 0 c-2429 0 -2691
-2 -2719 -16 -16 -8 -266 -252 -554 -541 -519 -521 -524 -526 -524 -566 0 -41
2 -43 1415 -1456 l1415 -1416 1 -4575 c1 -2516 2 -4579 4 -4585 1 -5 3 -16 3
-23 1 -7 7 -10 14 -6 7 5 8 3 4 -5 -14 -21 24 -51 64 -51 26 0 43 7 61 26 l24
26 3 4621 c1 3217 -1 4630 -8 4648 -6 14 -635 650 -1399 1413 l-1388 1387 471
470 470 469 2700 0 2701 0 1766 1766 1766 1766 35 -7 c76 -14 167 36 203 112
33 69 13 176 -41 224 -42 36 -115 60 -159 52z"/>
<path d="M40130 16907 c-82 -30 -130 -102 -130 -195 l0 -59 -171 -171 c-94
-95 -168 -176 -165 -181 4 -5 2 -12 -4 -16 -7 -4 -10 -406 -10 -1233 l0 -1226
-45 -46 c-32 -33 -42 -49 -35 -58 7 -9 7 -9 -2 -2 -9 7 -23 -1 -50 -27 -31
-30 -35 -39 -26 -52 10 -13 10 -14 -2 -3 -12 10 -21 6 -52 -25 -31 -30 -35
-39 -26 -52 10 -13 10 -14 -2 -3 -12 10 -21 6 -52 -25 -31 -30 -35 -39 -26
-52 10 -13 10 -14 -2 -3 -12 10 -21 6 -52 -25 -31 -30 -35 -39 -25 -52 10 -14
10 -14 -4 -4 -13 10 -22 6 -52 -25 -26 -27 -34 -41 -27 -50 7 -9 7 -9 -2 -2
-9 7 -23 -1 -50 -27 -31 -30 -35 -39 -25 -52 10 -14 10 -14 -4 -4 -13 10 -22
6 -52 -25 -31 -31 -35 -40 -25 -52 11 -12 10 -12 -3 -2 -13 9 -22 5 -52 -26
-31 -31 -35 -40 -25 -52 11 -12 10 -12 -3 -2 -13 9 -22 5 -52 -26 -31 -31 -35
-40 -25 -52 11 -12 10 -12 -3 -2 -13 9 -22 5 -52 -26 -31 -31 -35 -40 -25 -52
11 -12 10 -12 -3 -2 -13 9 -22 5 -52 -26 -31 -31 -35 -40 -25 -52 11 -12 10
-12 -3 -2 -13 9 -22 5 -52 -26 -26 -27 -34 -41 -27 -50 7 -9 7 -9 -2 -2 -9 7
-23 -1 -50 -27 -31 -30 -35 -39 -25 -52 10 -14 10 -14 -4 -4 -13 10 -22 6 -52
-25 -31 -31 -35 -40 -25 -52 11 -12 10 -12 -3 -2 -13 9 -22 5 -52 -26 -31 -31
-35 -40 -25 -52 11 -12 10 -12 -3 -2 -13 9 -22 5 -52 -26 -31 -31 -35 -40 -25
-52 11 -12 10 -12 -3 -2 -13 9 -22 5 -52 -26 -31 -31 -35 -40 -25 -52 11 -12
10 -12 -3 -2 -13 9 -22 5 -52 -26 -31 -31 -35 -40 -25 -52 11 -12 10 -12 -3
-2 -13 9 -22 5 -52 -26 -31 -31 -35 -40 -25 -52 11 -12 10 -12 -3 -2 -13 9
-22 5 -52 -26 -31 -31 -35 -40 -25 -52 11 -12 10 -12 -3 -2 -14 10 -23 5 -58
-34 -26 -27 -40 -51 -37 -60 3 -9 1 -12 -4 -9 -7 5 -10 -133 -10 -426 l1 -432
-23 -22 c-37 -36 -57 -63 -51 -69 4 -3 1 -6 -6 -6 -7 0 -10 -4 -6 -9 3 -5 1
-12 -4 -15 -24 -15 -18 -134 7 -129 6 2 9 -3 6 -11 -3 -7 2 -20 10 -29 8 -8
13 -17 10 -19 -2 -3 3 -11 13 -19 15 -12 16 -12 8 1 -4 8 2 5 14 -7 12 -13 26
-24 31 -24 20 -3 25 -4 35 -11 34 -22 176 16 160 42 -3 6 1 7 9 4 23 -9 68 77
69 134 1 60 -35 137 -75 162 l-29 18 0 407 c1 302 -2 412 -11 424 -10 13 -10
14 1 4 10 -9 20 -5 42 15 16 14 28 31 25 38 -2 6 3 11 12 10 10 -1 16 6 16 16
-1 10 3 15 8 12 13 -8 50 27 44 42 -2 6 3 11 12 10 10 -1 16 6 16 16 -1 10 3
15 8 12 13 -8 50 27 44 42 -2 6 3 11 12 10 10 -1 16 6 16 16 -1 10 3 15 8 12
13 -8 50 27 44 42 -2 6 3 11 12 10 10 -1 16 6 16 16 -1 10 3 15 8 12 13 -8 50
27 44 42 -2 6 3 11 12 10 10 -1 16 6 16 16 -1 10 3 15 8 12 13 -8 50 27 44 42
-2 6 3 11 12 10 10 -1 16 6 16 16 -1 10 3 15 8 12 13 -8 50 27 44 42 -2 6 3
11 12 10 10 0 16 6 16 16 -1 9 4 14 10 12 15 -6 50 31 42 44 -3 5 2 9 12 8 10
0 16 6 16 16 -1 10 3 15 8 12 13 -8 50 27 44 42 -2 6 3 11 12 10 10 -1 16 6
16 16 -1 10 3 15 8 12 13 -8 50 27 44 42 -2 6 3 11 12 10 10 -1 16 6 16 16 -1
10 3 15 8 12 13 -8 50 27 44 42 -2 6 3 11 12 10 10 -1 16 6 16 16 -1 10 3 15
8 12 13 -8 50 27 44 42 -2 6 3 11 12 10 10 -1 16 6 16 16 -1 10 3 15 8 12 13
-8 50 27 44 42 -2 6 3 11 12 10 10 -1 16 6 16 16 -1 10 3 15 8 12 13 -8 50 27
44 42 -2 6 3 11 12 10 10 -1 16 6 16 16 -1 10 3 15 8 12 13 -8 50 27 44 42 -2
6 3 11 12 10 10 -1 16 6 16 16 -1 10 3 15 8 12 13 -8 50 27 44 42 -2 6 3 11
12 10 10 0 16 6 16 16 -1 9 4 14 10 12 15 -6 50 31 42 44 -3 5 2 9 12 8 10 0
17 6 16 16 -1 9 4 14 10 12 15 -6 50 31 42 44 -3 5 2 9 12 8 10 0 17 6 16 16
-1 9 4 14 10 12 15 -6 50 31 42 44 -3 5 2 9 12 8 10 0 17 6 16 16 -1 9 4 14
10 12 15 -6 50 31 42 44 -3 5 2 9 12 8 10 0 16 6 16 16 -1 10 3 15 8 12 13 -8
50 27 44 42 -2 6 3 11 12 10 10 -1 16 6 16 16 -1 10 2 15 8 12 12 -8 39 16 32
27 -3 5 0 8 6 7 7 -2 22 10 33 25 l22 28 2 1237 3 1236 30 33 c17 18 29 37 26
42 -3 5 2 8 11 7 9 0 27 14 40 33 13 19 23 30 23 26 0 -4 37 30 83 75 76 78
85 83 120 81 25 -2 37 2 37 11 0 10 2 10 9 -1 8 -13 14 -13 38 -1 15 7 31 13
35 12 3 -1 25 16 48 38 28 26 40 45 36 55 -3 9 -2 13 4 10 6 -3 10 0 11 7 1 7
3 29 5 48 1 19 0 42 -3 50 -3 8 -8 24 -10 34 -2 11 -12 28 -23 38 -11 10 -20
23 -20 27 0 15 -102 61 -134 61 -17 -1 -47 -7 -66 -13z"/>
<path d="M38155 16568 c-86 -31 -139 -110 -134 -203 l3 -50 -1505 -1502 -1504
-1503 -1082 1082 -1083 1082 6 36 c26 164 -170 282 -308 184 -54 -38 -81 -91
-81 -159 0 -68 27 -121 82 -160 36 -25 53 -30 108 -32 l66 -1 1121 -1120 c766
-766 1130 -1123 1149 -1127 15 -4 40 -2 55 4 15 6 719 704 1564 1550 l1537
1539 58 -1 c109 -2 191 69 201 172 8 92 -30 159 -112 197 -55 26 -93 29 -141
12z"/>
<path d="M41130 16413 c-8 -4 -20 -13 -27 -22 -7 -9 -13 -12 -13 -7 0 5 -11
-1 -25 -14 -13 -12 -22 -27 -18 -33 3 -6 1 -7 -6 -3 -16 11 -41 -54 -41 -108
0 -60 11 -85 59 -135 l41 -42 0 -912 0 -911 -1324 -1326 -1325 -1325 -1 -384
c0 -268 3 -387 11 -397 13 -16 -16 -62 -54 -87 -13 -8 -32 -33 -42 -54 -21
-44 -31 -138 -13 -127 6 4 8 3 4 -4 -20 -33 62 -125 129 -143 70 -19 184 14
170 49 -4 9 -7 19 -8 22 -1 3 3 6 8 7 6 1 9 -5 7 -14 -5 -25 21 -9 41 25 24
40 31 110 17 160 -12 45 -83 117 -103 105 -9 -5 -8 -2 1 9 10 12 12 101 12
389 l-1 373 1326 1326 1325 1325 0 945 c1 827 3 947 16 965 8 11 17 19 20 17
10 -5 55 58 65 90 12 43 12 91 -1 83 -6 -3 -7 1 -4 10 12 31 -50 123 -87 129
-8 1 -24 7 -36 14 -22 12 -96 15 -123 5z"/>
<path d="M31815 15712 c-116 -54 -150 -205 -68 -302 40 -48 95 -72 160 -69
l54 3 1245 -1245 1244 -1244 0 -4812 c0 -3249 3 -4814 10 -4818 6 -4 8 -11 5
-16 -11 -17 44 -57 80 -57 19 0 32 4 29 9 -3 5 1 6 9 3 9 -3 22 4 31 17 15 21
16 445 16 4888 l0 4866 -1269 1270 -1269 1270 0 55 c1 112 -71 191 -180 197
-41 3 -69 -2 -97 -15z"/>
<path d="M33370 15710 c-87 -16 -148 -83 -157 -173 -14 -138 118 -247 250
-207 25 7 60 30 86 56 l44 44 1409 0 1409 0 32 -37 c38 -43 98 -72 148 -73 56
0 135 45 163 93 50 86 42 170 -22 239 -77 82 -198 83 -279 2 l-44 -44 -1412 0
-1412 0 -27 33 c-42 54 -117 81 -188 67z"/>
<path d="M29456 15682 c12 -8 28 -46 16 -38 -4 2 -14 1 -21 -3 -9 -6 -7 -10 8
-14 12 -3 21 -1 21 4 0 5 5 9 11 9 5 0 7 -5 3 -12 -4 -6 -3 -8 3 -5 6 4 17 -1
24 -10 12 -14 12 -16 -1 -8 -22 13 -73 15 -87 4 -7 -6 -17 -8 -23 -4 -5 3 -10
1 -10 -4 0 -6 9 -16 19 -23 10 -6 17 -18 14 -25 -3 -7 0 -19 6 -27 14 -17 2
-29 -15 -15 -7 6 -10 17 -7 25 6 15 -13 44 -29 44 -6 0 -5 -7 2 -15 7 -8 9
-22 6 -31 -6 -16 617 -645 2797 -2822 l607 -606 0 -4438 c0 -2947 3 -4439 10
-4443 6 -3 10 -13 10 -22 0 -26 41 -54 75 -52 16 2 42 14 58 28 l27 25 0 4485
0 4486 -1592 1592 c-876 875 -1596 1589 -1602 1586 -5 -3 -6 -2 -3 4 6 9 -130
147 -250 256 -29 26 -50 47 -46 47 3 0 0 7 -7 15 -7 8 -18 15 -24 15 -8 0 -8
-3 0 -8z"/>
<path d="M37764 15446 c-65 -28 -113 -108 -114 -186 l0 -45 -1175 -1175 -1175
-1175 0 -4401 c0 -4395 0 -4401 20 -4427 31 -40 72 -44 115 -12 l35 27 0 4365
0 4365 1148 1149 1147 1149 55 -6 c40 -4 67 -2 95 10 202 85 146 377 -72 376
-26 -1 -62 -7 -79 -14z"/>
<path d="M31439 15420 c-88 -16 -148 -85 -156 -180 -6 -71 24 -132 85 -175 38
-26 53 -30 108 -30 l64 0 1200 -1200 1200 -1200 0 -4708 c0 -3258 3 -4714 11
-4728 5 -11 15 -16 21 -13 6 4 8 3 5 -3 -12 -18 18 -32 58 -29 27 3 47 13 62
31 l23 26 0 4740 c0 4100 -2 4744 -14 4767 -8 15 -560 571 -1225 1237 l-1211
1210 0 53 c0 87 -34 148 -100 182 -45 22 -86 29 -131 20z"/>
<path d="M33936 15105 c-78 -28 -126 -98 -126 -184 0 -95 59 -169 150 -190 74
-17 160 13 200 69 l21 30 847 0 847 0 15 -32 c8 -18 32 -46 53 -62 36 -29 45
-31 117 -31 72 0 81 2 116 31 116 93 101 264 -28 328 -28 14 -68 26 -88 26
-40 0 -139 -45 -147 -66 -4 -12 -146 -14 -864 -14 l-858 0 -45 44 c-63 63
-130 80 -210 51z"/>
<path d="M28955 15020 c-3 -6 0 -13 8 -16 12 -4 11 -10 -7 -29 -11 -13 -26
-29 -33 -37 -37 -41 -53 -45 -67 -16 -6 12 -20 24 -30 26 -10 2 32 -47 94
-110 62 -62 116 -112 121 -110 5 1 8 -2 7 -6 -4 -10 189 -205 1594 -1616
l1107 -1111 1 -2911 0 -2912 -44 -45 c-71 -71 -83 -164 -33 -239 82 -121 246
-122 326 -1 26 39 31 56 30 98 -2 66 -22 112 -64 151 l-35 32 0 2941 c0 2506
-2 2946 -14 2969 -8 15 -560 572 -1228 1237 -1302 1298 -1644 1635 -1659 1635
-5 0 -9 6 -9 14 0 8 -13 23 -29 32 -17 10 -28 21 -25 26 3 4 3 8 0 8 -3 0 -8
-5 -11 -10z"/>
<path d="M38140 14888 c-88 -25 -144 -104 -138 -195 l3 -54 -1063 -1062 c-585
-584 -1070 -1074 -1078 -1089 -12 -23 -14 -480 -14 -3417 0 -3068 -1 -3391
-16 -3405 -8 -9 -19 -16 -24 -16 -8 0 -42 -54 -45 -70 0 -3 -6 -15 -13 -27
-14 -26 -10 -76 9 -100 9 -11 10 -14 2 -9 -18 10 -5 -22 25 -62 15 -21 30 -31
39 -28 8 3 11 1 8 -4 -4 -6 9 -17 29 -25 58 -24 199 -4 181 26 -4 5 -3 9 2 8
21 -4 33 2 33 16 0 7 6 18 14 22 22 13 36 50 36 95 0 74 -1 79 -10 73 -6 -3
-7 1 -4 9 7 17 -64 99 -80 93 -8 -3 -10 935 -8 3372 l2 3376 960 960 c529 529
957 965 953 970 -4 4 -3 5 3 2 12 -7 178 156 169 165 -3 3 13 2 37 -2 47 -9
108 -2 108 12 0 5 4 7 10 3 10 -6 94 64 86 73 -3 2 1 11 9 18 21 21 29 97 15
139 -17 52 -86 121 -135 134 -47 13 -58 13 -105 -1z"/>
<path d="M28539 14438 c-23 -37 -20 -96 6 -110 8 -5 15 -14 15 -19 0 -6 -7 -3
-16 5 -8 9 -20 16 -27 16 -6 0 -1 -9 11 -20 12 -12 22 -24 22 -27 0 -4 -11 4
-24 16 -14 13 -22 30 -19 40 3 13 -2 20 -18 24 -15 4 -20 11 -17 24 4 14 0 19
-18 18 -12 0 -26 -3 -30 -7 -10 -11 27 -50 42 -44 8 3 10 -3 6 -16 -3 -13 -1
-19 5 -15 6 4 19 -5 29 -20 9 -15 178 -189 375 -388 l359 -360 0 -1470 0
-1469 355 -356 355 -355 0 -2555 c0 -2327 1 -2558 16 -2578 23 -33 60 -45 98
-32 66 22 61 -202 64 2610 2 1405 0 2575 -3 2600 -6 43 -19 58 -356 395 l-349
350 0 1452 c0 831 -4 1462 -9 1475 -5 13 -177 190 -381 393 -205 204 -391 389
-413 413 -23 23 -44 42 -49 42 -5 0 -17 -15 -29 -32z"/>
<path d="M38709 14223 c-1 -5 -1 -11 -1 -14 1 -3 -9 -5 -21 -5 -12 1 -21 -4
-20 -11 2 -7 -3 -10 -11 -7 -7 3 -19 -2 -26 -11 -7 -8 -9 -15 -4 -15 5 0 -1
-7 -13 -15 -23 -16 -36 -52 -22 -61 5 -3 9 -11 9 -17 0 -7 -4 -6 -10 3 -14 22
-24 -12 -16 -59 l6 -38 -195 -193 c-107 -106 -191 -198 -188 -204 3 -6 2 -8
-2 -3 -5 4 -26 -9 -47 -30 -31 -30 -35 -39 -26 -52 10 -13 10 -14 -2 -3 -12
10 -21 6 -52 -25 -31 -30 -35 -39 -25 -52 10 -14 10 -14 -4 -4 -13 10 -27 0
-92 -65 -43 -43 -74 -82 -70 -87 4 -4 3 -5 -3 -2 -14 8 -87 -66 -77 -78 5 -4
3 -5 -3 -2 -14 8 -87 -66 -77 -78 5 -4 3 -5 -3 -2 -14 8 -87 -66 -77 -78 5 -4
3 -5 -3 -2 -12 7 -87 -65 -79 -76 3 -4 2 -5 -2 -2 -10 8 -83 -67 -76 -78 3 -6
2 -7 -4 -4 -13 8 -166 -147 -156 -158 4 -4 3 -5 -3 -2 -14 8 -87 -66 -77 -78
5 -4 3 -5 -3 -2 -14 8 -87 -66 -77 -78 5 -4 3 -5 -3 -2 -14 8 -87 -66 -77 -78
5 -4 3 -5 -3 -2 -13 8 -407 -386 -397 -397 4 -4 1 -6 -7 -4 -8 2 -22 -11 -32
-32 -17 -33 -18 -84 -16 -882 l3 -846 24 -26 c13 -14 28 -23 34 -19 6 3 7 2 4
-4 -8 -13 67 -86 78 -76 4 5 5 3 2 -3 -8 -14 66 -87 78 -77 4 5 5 3 2 -3 -8
-14 66 -87 78 -77 4 5 5 3 2 -3 -8 -14 66 -87 78 -77 4 5 5 3 2 -3 -8 -14 66
-87 78 -77 4 5 5 3 2 -3 -8 -14 66 -87 78 -77 4 5 5 3 2 -3 -8 -14 66 -87 78
-77 4 5 5 3 2 -3 -8 -14 66 -87 78 -77 4 5 5 3 2 -3 -8 -14 66 -87 78 -77 4 5
5 3 2 -3 -8 -14 66 -87 78 -77 4 5 5 3 2 -3 -8 -14 66 -87 78 -77 4 5 5 3 2
-3 -8 -14 66 -87 78 -77 4 5 5 3 2 -3 -8 -14 66 -87 78 -77 4 5 5 3 2 -3 -8
-14 78 -98 92 -90 8 5 11 -503 11 -1769 0 -1673 1 -1778 18 -1800 22 -31 71
-50 86 -34 8 9 7 10 -3 4 -10 -6 -12 -4 -7 4 6 8 12 9 20 2 9 -8 19 -4 37 15
l24 26 3 1781 c2 1736 2 1783 -17 1817 -10 19 -26 34 -35 34 -8 -1 -14 2 -13
7 1 5 -256 267 -570 582 l-573 574 0 795 0 796 378 378 c207 208 376 382 374
386 -1 5 1 7 5 6 10 -4 59 45 55 55 -1 4 4 6 10 5 7 -2 12 3 10 10 -1 6 1 11
5 10 5 -2 19 8 33 22 14 14 24 28 22 33 -1 4 4 6 10 5 7 -2 12 3 10 10 -1 6 1
11 5 10 10 -4 59 45 56 54 -2 5 3 7 10 5 6 -1 11 4 10 10 -2 7 0 12 5 10 9 -3
58 46 55 55 -2 5 3 7 10 5 6 -1 11 4 10 10 -2 7 0 12 5 10 9 -3 58 46 55 55
-2 5 3 7 10 5 6 -1 11 4 10 10 -2 7 0 12 5 10 9 -3 58 46 55 55 -2 5 3 7 10 5
6 -1 11 4 10 10 -2 7 0 12 5 10 4 -1 18 9 32 23 14 14 24 28 23 32 -2 5 3 7
10 5 6 -1 11 4 10 10 -2 7 0 12 5 10 9 -3 58 46 55 55 -2 5 3 7 10 5 6 -1 11
4 10 10 -2 7 0 12 5 10 9 -3 58 46 55 55 -2 5 3 7 10 5 6 -1 11 4 10 10 -2 7
0 12 5 10 9 -3 58 46 55 56 -2 4 3 6 10 5 6 -2 11 3 10 10 -2 6 0 11 5 10 4
-2 18 8 32 22 14 14 24 28 23 33 -2 4 3 6 10 5 6 -2 11 3 10 10 -2 6 0 11 5
10 4 -2 18 8 32 22 14 14 24 28 23 33 -2 4 3 6 10 5 6 -2 11 3 10 10 -2 6 0
11 5 10 9 -4 58 45 55 55 -2 4 3 6 10 5 6 -2 11 3 10 10 -2 6 0 11 5 10 4 -2
30 18 57 44 50 47 50 47 104 41 38 -4 52 -3 47 5 -4 7 1 10 14 7 11 -2 20 1
20 6 0 6 4 8 8 5 15 -9 71 44 65 60 -3 9 0 14 8 12 8 -2 13 4 13 14 -1 10 2
16 6 13 12 -8 20 22 20 75 0 54 -17 103 -33 93 -6 -3 -7 -1 -4 4 9 14 -25 51
-42 45 -8 -2 -11 0 -7 6 10 16 -58 42 -113 42 -28 0 -52 -3 -52 -7z"/>
<path d="M29776 13070 c-87 -27 -153 -121 -144 -205 12 -105 93 -180 191 -178
29 1 61 3 73 5 16 2 159 -134 630 -601 l609 -604 5 -2978 5 -2978 225 -225
c127 -127 231 -223 238 -221 7 3 10 1 7 -5 -7 -12 54 -82 66 -74 5 3 9 0 9 -7
0 -7 41 -53 92 -102 71 -70 93 -97 97 -124 3 -19 3 -137 -1 -261 -6 -199 -10
-522 -12 -1014 -1 -80 2 -150 6 -154 4 -4 16 -1 25 7 16 13 17 12 4 -4 -18
-22 -5 -37 35 -41 34 -4 79 17 93 43 6 10 10 110 10 231 0 117 3 215 6 218 3
3 5 168 5 365 -1 197 1 361 4 365 10 9 7 324 -3 318 -5 -3 -12 1 -15 10 -3 8
-2 12 4 9 19 -12 10 4 -24 41 -22 24 -38 34 -46 29 -9 -6 -11 -4 -6 4 11 17
-58 86 -75 75 -8 -5 -10 -3 -5 5 11 17 -58 86 -75 75 -8 -5 -10 -3 -5 5 11 17
-58 86 -75 75 -8 -5 -10 -3 -5 5 11 17 -58 86 -75 75 -8 -5 -10 -3 -5 5 10 15
-58 86 -73 76 -6 -3 -9 0 -6 7 3 7 -50 68 -120 138 l-125 125 0 2975 0 2975
-649 650 -649 650 -5 53 c-7 88 -76 154 -172 166 -22 3 -53 1 -69 -4z"/>
<path d="M29767 11880 c-104 -31 -164 -157 -121 -258 32 -77 95 -122 171 -122
l48 0 367 -372 367 -373 1 -2730 0 -2730 292 -290 c161 -159 295 -289 298
-288 3 1 4 -201 2 -448 -2 -316 1 -449 8 -449 6 0 9 4 5 9 -3 5 0 13 6 17 8 4
9 3 5 -4 -4 -7 -2 -12 5 -12 7 0 5 -6 -5 -13 -17 -13 -17 -15 10 -36 31 -24
101 -27 96 -3 -1 6 3 11 10 10 6 -2 17 8 25 22 17 34 19 935 1 946 -7 5 -8 3
-3 -6 5 -9 4 -11 -4 -6 -8 5 -9 12 -2 19 6 8 5 19 -5 31 -11 15 -16 17 -28 7
-13 -11 -14 -9 -10 13 4 23 2 26 -19 22 -16 -3 -24 1 -24 10 0 11 4 11 16 2 9
-7 3 2 -13 20 -29 31 -43 41 -31 23 3 -5 1 -12 -4 -16 -6 -3 -8 5 -5 20 4 23
2 25 -21 21 -15 -3 -23 -1 -20 5 4 5 12 6 18 2 7 -3 3 4 -8 18 -11 13 -21 26
-22 28 -1 2 -9 -1 -16 -7 -10 -9 -14 -8 -14 3 0 8 4 12 9 9 22 -14 5 16 -18
31 -15 9 -24 12 -20 7 3 -6 2 -13 -3 -17 -6 -3 -8 4 -6 17 6 27 -14 41 -35 25
-13 -11 -13 -10 -1 6 12 16 12 20 -2 34 -14 14 -18 14 -34 2 -17 -13 -17 -13
-3 5 13 16 12 20 -5 32 -15 11 -22 11 -34 1 -14 -11 -14 -10 -2 6 12 16 10 21
-22 53 -22 22 -40 33 -48 28 -8 -5 -10 -3 -5 5 11 17 -58 86 -75 75 -7 -4 -10
-3 -5 4 3 6 -7 25 -24 43 l-30 33 -2 2738 -3 2738 -382 382 -381 383 5 52 c8
74 -3 118 -40 160 -55 62 -134 86 -210 63z"/>
<path d="M37364 10854 c5 -14 4 -15 -8 -5 -11 9 -17 8 -30 -4 -9 -9 -16 -14
-16 -10 0 3 -9 -3 -21 -14 -13 -11 -18 -24 -14 -32 5 -7 4 -10 -2 -6 -14 9
-30 -12 -38 -48 -16 -69 -17 -85 -7 -85 6 0 8 -9 5 -20 -3 -12 0 -20 6 -20 7
0 10 -4 7 -9 -3 -4 6 -23 19 -41 14 -19 25 -27 26 -19 0 8 4 4 10 -9 5 -13 13
-20 19 -17 5 3 10 2 10 -4 0 -17 66 -32 114 -27 l45 6 473 -473 c260 -260 479
-480 486 -489 10 -13 12 -361 12 -1766 l0 -1751 22 -24 c25 -28 73 -43 83 -27
4 6 10 8 15 5 5 -3 18 7 29 21 l21 27 0 1786 0 1787 -36 37 c-20 20 -40 34
-45 31 -5 -3 -8 -1 -7 5 4 14 -62 82 -73 75 -5 -3 -8 -1 -7 5 4 14 -62 82 -73
75 -5 -3 -8 -1 -7 5 4 14 -62 82 -73 75 -5 -3 -8 -1 -7 5 4 14 -62 82 -73 75
-5 -3 -8 -1 -7 5 4 14 -62 82 -73 75 -5 -3 -8 -1 -7 5 4 14 -62 82 -73 75 -5
-3 -8 -1 -7 5 4 14 -62 82 -73 75 -5 -3 -8 -1 -7 5 4 14 -62 82 -73 75 -5 -3
-8 -1 -7 5 4 14 -62 82 -73 75 -5 -3 -8 -1 -7 5 4 14 -62 82 -73 75 -5 -3 -8
-1 -7 5 4 14 -62 82 -73 75 -5 -3 -8 0 -7 7 2 8 -6 13 -19 14 -12 0 -25 3 -29
7 -3 4 3 6 15 3 27 -5 27 10 1 28 -16 11 -20 24 -19 63 2 86 -13 122 -37 90
-8 -11 -14 -15 -14 -9 0 6 7 16 15 23 13 11 12 16 -7 42 -27 39 -88 65 -157
67 -47 2 -53 0 -47 -15z"/>
<path d="M36654 9630 c-73 -17 -151 -89 -137 -126 5 -13 3 -15 -7 -9 -9 5 -11
4 -6 -4 4 -6 2 -18 -4 -26 -18 -22 6 -119 28 -110 11 4 12 2 4 -8 -8 -10 -4
-20 18 -41 16 -15 34 -24 40 -21 6 4 9 1 8 -7 -2 -7 4 -13 12 -13 8 0 18 -3
21 -8 8 -11 90 -17 83 -6 -3 6 4 7 20 3 16 -4 133 -113 301 -281 150 -151 277
-274 280 -273 4 1 10 -2 13 -6 4 -4 1 -4 -6 0 -10 6 -12 -359 -12 -1847 l0
-1855 21 -26 c11 -14 25 -24 30 -21 5 4 9 2 9 -3 0 -8 24 -9 67 -4 7 1 22 20
33 42 20 39 20 53 20 1899 0 1249 -3 1862 -10 1866 -6 4 -8 10 -5 15 6 10 -57
80 -72 80 -4 0 -16 14 -25 30 -9 17 -27 35 -40 41 -13 5 -31 23 -40 40 -9 16
-27 34 -40 40 -13 5 -31 23 -40 40 -9 16 -27 34 -40 40 -13 5 -31 23 -40 40
-9 16 -27 34 -40 40 -13 5 -31 23 -40 40 -9 16 -28 34 -41 40 -14 6 -30 22
-36 36 -6 13 -24 31 -40 40 -37 22 -65 74 -57 106 8 33 -4 88 -17 80 -6 -3 -7
-1 -3 5 9 15 -40 92 -59 92 -8 0 -18 7 -23 16 -5 9 -23 17 -41 19 -17 1 -34 5
-38 9 -7 7 -6 7 -49 -4z"/>
<path d="M36585 8653 c-32 -8 -87 -54 -81 -69 3 -8 0 -11 -8 -8 -9 4 -19 -10
-30 -38 -18 -47 -18 -76 -4 -126 9 -28 12 -31 26 -20 13 11 14 10 4 -8 -14
-26 1 -42 35 -39 12 1 20 -2 17 -7 -4 -5 -12 -7 -20 -4 -23 9 -16 -11 11 -28
l25 -16 0 -2075 0 -2074 33 -25 c42 -33 77 -33 110 -2 l27 25 0 2070 0 2071
45 47 c25 25 43 48 40 51 -2 2 2 11 10 19 20 20 18 109 -3 153 -10 20 -27 37
-42 41 -14 4 -19 7 -11 8 11 1 10 5 -4 21 -14 15 -21 17 -32 9 -10 -9 -12 -9
-8 3 4 10 -2 17 -17 22 -26 7 -93 6 -123 -1z"/>
</g>
</svg>
